<svg width="528" height="436" viewBox="0 0 528 436" fill="none" xmlns="http://www.w3.org/2000/svg">
<path d="M311.446 207.68L331.103 216.32C330.085 216.614 329.082 216.947 328.071 217.256L325.077 218.271C323.077 218.944 321.094 219.682 319.117 220.419C317.141 221.172 315.165 221.925 313.212 222.742C311.288 223.534 309.357 224.343 307.464 225.223C306.408 218.104 304.824 210.502 302.75 208.734L311.446 207.68Z" fill="url(#paint0_linear_120_1012)" fill-opacity="0.75"/>
<path d="M331.103 216.32V231.002C327.468 232.778 319.321 235.584 309.04 238.802C309.04 238.802 308.505 232.254 307.464 225.239C309.463 224.652 311.446 223.994 313.408 223.312C315.406 222.639 317.39 221.901 319.366 221.164C321.343 220.411 323.319 219.658 325.272 218.841L328.199 217.621C329.165 217.185 330.145 216.78 331.103 216.32Z" fill="url(#paint1_linear_120_1012)" fill-opacity="0.75"/>
<path d="M190.044 224.081C190.791 223.843 191.523 223.582 192.247 223.273L191.243 227.458C190.268 226.448 189.232 225.502 188.143 224.628C188.777 224.462 189.418 224.287 190.044 224.081Z" fill="url(#paint2_linear_120_1012)" fill-opacity="0.75"/>
<path d="M256.806 240.11C246.314 238.335 217.613 228.521 212.446 224.39C208.645 221.346 204.292 216.36 203.727 204.469C202.897 209.884 202.045 215.298 201.17 220.712L201.14 220.903C201.782 220.522 202.473 220.242 203.191 220.07C203.999 219.854 204.836 219.784 205.665 219.864C204.958 220.327 204.18 220.656 203.365 220.839C202.631 221.033 201.873 221.108 201.117 221.061L199.058 233.626C200.936 234.965 202.799 236.313 204.639 237.7L207.536 239.872L210.41 242.084C212.326 243.559 214.249 245.017 216.135 246.539C218.021 248.053 219.929 249.528 221.799 251.074L221.807 251.082C221.849 251.122 221.878 251.174 221.89 251.232C223.338 250.796 224.802 250.392 226.257 249.972L230.911 248.719C234.019 247.895 237.134 247.134 240.242 246.341C243.372 245.604 246.487 244.835 249.618 244.137C252.748 243.432 255.878 242.742 259.031 242.14C255.954 243.059 252.846 243.9 249.746 244.724C246.646 245.556 243.523 246.309 240.415 247.11C237.292 247.839 234.177 248.608 231.047 249.314L226.348 250.352C224.862 250.654 223.383 250.971 221.898 251.256C221.898 251.264 221.913 251.272 221.913 251.28C222.184 254.475 222.441 257.669 222.622 260.872C222.146 257.748 221.747 254.617 221.362 251.478C219.454 250.059 217.591 248.585 215.705 247.142C213.781 245.683 211.896 244.161 210.003 242.663L207.159 240.404L204.353 238.105C202.565 236.654 200.8 235.164 199.05 233.657L198.447 237.352C198.432 237.441 198.383 237.52 198.313 237.572C198.242 237.624 198.155 237.645 198.07 237.629C198.051 237.628 198.033 237.622 198.017 237.613L189.841 234.625C189.758 234.592 189.69 234.529 189.648 234.447C189.607 234.366 189.594 234.271 189.614 234.181L191.213 227.569C189.816 226.767 188.475 225.861 187.201 224.858C186.197 225.619 185.209 226.388 184.198 227.141C183.097 227.942 182.011 228.766 180.894 229.559C181.921 228.647 182.961 227.76 184.002 226.864C184.968 226.031 185.948 225.223 186.929 224.406C186.936 224.348 186.954 224.291 186.982 224.24C186.401 221.893 185.888 219.531 185.352 217.169C184.787 214.727 184.266 212.27 183.761 209.812C183.233 207.355 182.727 204.897 182.26 202.424C181.77 199.959 181.317 197.493 180.894 195.012C181.543 197.438 182.162 199.872 182.735 202.313C183.338 204.747 183.896 207.196 184.44 209.646C184.998 212.095 185.541 214.545 186.039 217.002C186.529 219.333 187.027 221.664 187.479 224.002C188.287 223.804 189.094 223.622 189.908 223.471C190.693 223.328 191.477 223.217 192.277 223.146L193.159 219.507L196.75 204.834L196.757 204.81V204.802C197.208 203.52 197.563 202.203 197.821 200.862C198.115 199.558 198.108 198.199 197.798 196.899C197.609 196.281 197.265 195.728 196.803 195.297C196.56 195.083 196.302 194.887 196.033 194.711L195.611 194.418L195.392 194.227C195.362 194.219 195.339 194.196 195.256 194.164C193.99 193.861 192.704 193.662 191.409 193.569C186.159 193.07 180.887 192.777 175.622 192.475C178.254 192.515 180.894 192.594 183.534 192.697C186.174 192.8 188.807 192.911 191.447 193.125C192.103 193.181 192.767 193.244 193.423 193.324C194.102 193.379 194.773 193.501 195.43 193.688C195.539 193.725 195.641 193.781 195.732 193.855L195.897 193.997L196.305 194.267C196.598 194.45 196.878 194.657 197.142 194.885C197.683 195.371 198.089 196.001 198.319 196.709C198.679 198.1 198.718 199.563 198.432 200.973C198.187 202.35 197.834 203.702 197.376 205.016L193.861 219.69L190.376 234.038L197.874 236.828L200.747 220.633C201.721 215.227 202.714 209.823 203.727 204.422C203.559 199.219 203.908 194.011 204.768 188.884L190.957 187.362C189.565 187.228 188.248 186.644 187.185 185.69C186.055 185.516 184.934 185.278 183.829 184.976C183.542 184.905 183.256 184.826 182.969 184.73C182.825 184.683 182.682 184.635 182.532 184.58C182.515 184.572 182.497 184.567 182.479 184.564H182.456C182.405 184.57 182.354 184.58 182.305 184.596C181.773 184.771 181.257 184.999 180.766 185.277C179.725 185.809 178.7 186.395 177.659 186.95C176.625 187.529 175.569 188.076 174.498 188.599C176.338 187.04 178.327 185.688 180.434 184.564C180.985 184.271 181.561 184.034 182.154 183.858C182.251 183.838 182.35 183.828 182.448 183.827C182.567 183.834 182.684 183.861 182.795 183.906C182.916 183.969 183.052 184.017 183.18 184.072L184.002 184.39C185.051 184.778 186.099 185.19 187.14 185.642C186.046 184.548 185.262 182.78 185.722 179.895L186.423 160.322L183.595 159.712C183.595 159.712 181.513 160.203 185.624 147.726L192.194 127.868C192.194 127.868 166.39 131.213 165.455 132.196C164.519 133.179 170.878 199.42 179.673 231.065C179.673 231.065 219.695 261.141 222.124 262.124C223.308 262.592 245.492 257.003 269.727 250.289C269.727 250.289 267.29 241.886 256.806 240.11ZM172.22 147.068C171.609 143.168 171.021 139.267 170.508 135.351C171.323 139.212 172.062 143.088 172.786 146.965C173.51 150.841 174.174 154.734 174.868 158.618C175.501 162.51 176.173 166.402 176.776 170.303L177.674 176.153C177.945 178.111 178.239 180.061 178.488 182.019C178.074 180.093 177.704 178.159 177.304 176.224L176.203 170.406C175.479 166.529 174.823 162.637 174.129 158.753C173.495 154.86 172.824 150.976 172.22 147.068Z" fill="url(#paint3_linear_120_1012)" fill-opacity="0.75"/>
<path d="M241.954 101.137C240.581 101.137 238.831 101.922 237.089 102.318C235.346 102.715 231.356 101.922 230.979 100.749C230.602 99.5677 228.249 89.833 227.864 90.2928C227.487 90.7525 226.74 91.569 226.74 91.569C226.74 91.569 226.612 103.428 226.861 104.705C227.117 105.989 231.726 112.41 238.582 111.752C245.439 111.094 246.442 102.58 246.442 102.58C246.442 102.58 243.319 101.137 241.954 101.137ZM243.085 104.657C242.582 104.983 241.993 105.133 241.403 105.085C240.831 105.039 240.276 104.855 239.782 104.546C239.301 104.254 238.891 103.85 238.582 103.365C239.478 103.852 240.448 104.169 241.449 104.3C241.917 104.337 242.387 104.27 242.829 104.102C243.307 103.907 243.765 103.66 244.194 103.365C243.954 103.901 243.568 104.351 243.085 104.657Z" fill="url(#paint4_linear_120_1012)" fill-opacity="0.75"/>
<path d="M226.74 91.5725C226.74 91.5725 232.974 85.4137 232.475 77.8134C232.475 77.8134 234.096 76.2409 236.714 78.8617C236.714 78.8617 238.959 79.5169 241.577 76.634C244.196 73.7511 245.567 77.9444 245.567 77.9444C245.567 77.9444 246.939 82.3997 247.313 81.2204C247.687 80.041 248.31 74.4063 242.699 72.5718C238.336 71.2058 233.775 70.6732 229.233 70.9993C227.737 71.2614 224.62 73.8822 224.62 77.5513C224.62 81.2204 223.124 85.8067 223.248 87.2482C223.373 88.6897 226.74 91.5725 226.74 91.5725Z" fill="url(#paint5_linear_120_1012)" fill-opacity="0.75"/>
<path d="M232.351 90.0001C233.56 89.5145 234.858 89.3233 236.148 89.4409C236.796 89.4995 237.435 89.6459 238.048 89.8766C238.658 90.1122 239.22 90.4652 239.707 90.9174C239.132 90.6558 238.537 90.4439 237.93 90.2839C237.328 90.139 236.718 90.039 236.104 89.9847C234.854 89.8949 233.6 89.9001 232.351 90.0001Z" fill="url(#paint6_linear_120_1012)" fill-opacity="0.75"/>
<path d="M242.949 90.2934C243.449 89.7177 244.064 89.2662 244.751 88.9717C245.432 88.633 246.2 88.5341 246.939 88.6897C246.264 88.9156 245.601 89.1777 244.952 89.4749C244.302 89.7555 243.662 90.0608 242.949 90.2934Z" fill="url(#paint7_linear_120_1012)" fill-opacity="0.75"/>
<path d="M237.088 92.7847C237.291 92.7773 237.482 92.6878 237.622 92.535C237.763 92.3823 237.841 92.1781 237.841 91.9657C237.841 91.7532 237.763 91.5491 237.622 91.3963C237.482 91.2435 237.291 91.154 237.088 91.1467C236.886 91.154 236.695 91.2435 236.555 91.3963C236.414 91.5491 236.336 91.7532 236.336 91.9657C236.336 92.1781 236.414 92.3823 236.555 92.535C236.695 92.6878 236.886 92.7773 237.088 92.7847Z" fill="url(#paint8_linear_120_1012)" fill-opacity="0.75"/>
<path d="M245.068 92.2605C245.27 92.2532 245.462 92.1637 245.602 92.0109C245.743 91.8581 245.821 91.6539 245.821 91.4415C245.821 91.229 245.743 91.0249 245.602 90.8721C245.462 90.7193 245.27 90.6298 245.068 90.6225C244.866 90.6298 244.675 90.7193 244.534 90.8721C244.394 91.0249 244.316 91.229 244.316 91.4415C244.316 91.6539 244.394 91.8581 244.534 92.0109C244.675 92.1637 244.866 92.2532 245.068 92.2605Z" fill="url(#paint9_linear_120_1012)" fill-opacity="0.75"/>
<path d="M223.248 87.2483C222.976 87.3673 222.732 87.5492 222.536 87.7805C222.339 88.0118 222.194 88.2867 222.112 88.5847C221.955 89.1734 221.956 89.7965 222.115 90.3847C222.478 91.588 222.906 92.7686 223.397 93.9207C223.835 95.1252 224.181 96.3647 224.431 97.6274C224.532 98.2201 224.811 98.7632 225.227 99.1773C225.45 99.3806 225.711 99.532 225.993 99.6215C226.275 99.7111 226.572 99.7368 226.864 99.697C226.562 99.7899 226.243 99.8101 225.932 99.7562C225.621 99.7023 225.325 99.5756 225.067 99.3855C224.558 98.9588 224.197 98.3683 224.038 97.7048C223.734 96.484 223.357 95.2843 222.911 94.1126C222.703 93.5171 222.491 92.9227 222.265 92.3335C222.016 91.7343 221.834 91.1066 221.724 90.4631C221.598 89.8041 221.65 89.1212 221.875 88.4918C221.994 88.1853 222.181 87.9129 222.42 87.6968C222.658 87.4807 222.942 87.327 223.248 87.2483Z" fill="url(#paint10_linear_120_1012)" fill-opacity="0.75"/>
<path d="M243.572 96.1589C243.87 96.988 243.861 97.9042 243.546 98.7265C243.373 99.1666 243.052 99.524 242.643 99.7299C242.242 99.8987 241.794 99.9027 241.39 99.7412C241.765 99.6908 242.126 99.5594 242.45 99.3552C242.727 99.1372 242.942 98.8435 243.071 98.5061C243.331 97.7489 243.5 96.9603 243.572 96.1589Z" fill="url(#paint11_linear_120_1012)" fill-opacity="0.75"/>
<path d="M247.313 81.2204C247.207 83.0198 247.203 84.8242 247.302 86.6239C247.354 87.5165 247.452 88.4054 247.596 89.2867C247.747 90.1514 247.987 91.0372 248.131 91.9405C248.424 93.7546 248.405 95.6092 248.075 97.4162C247.717 99.1966 247.168 100.929 246.44 102.58C246.976 100.87 247.391 99.1199 247.681 97.3451C247.943 95.5822 247.922 93.7858 247.619 92.0302C247.494 91.1474 247.276 90.286 247.13 89.3704C246.989 88.4683 246.913 87.5561 246.905 86.6418C246.872 84.825 247.009 83.0092 247.313 81.2204Z" fill="url(#paint12_linear_120_1012)" fill-opacity="0.75"/>
<path d="M226.864 104.706C226.761 105.754 226.389 106.753 225.788 107.597C225.482 108.026 225.107 108.395 224.68 108.688C224.247 108.969 223.75 109.123 223.241 109.132C223.673 108.926 224.077 108.661 224.442 108.343C224.785 108.018 225.097 107.658 225.374 107.269C225.655 106.874 225.915 106.461 226.151 106.034C226.388 105.601 226.632 105.164 226.864 104.706Z" fill="url(#paint13_linear_120_1012)" fill-opacity="0.75"/>
<path d="M226.375 106.106C222.586 106.915 218.878 108.098 215.301 109.64C213.446 110.348 211.507 110.781 209.539 110.927C207.627 111.045 205.722 111.275 203.834 111.616C203.408 111.714 203 111.881 202.623 112.112C202.19 112.393 201.734 112.633 201.26 112.828C200.398 113.165 199.603 113.669 198.918 114.314C197.61 115.744 196.535 117.39 195.736 119.187C195.283 120.073 194.921 121.013 194.523 121.933C194.163 122.871 193.801 123.811 193.463 124.762C193.145 125.72 192.807 126.671 192.503 127.636L191.638 130.547L191.636 130.554L191.632 130.565C189.829 135.307 188.19 140.115 186.716 144.988C185.986 147.423 185.296 149.871 184.707 152.339C184.416 153.573 184.142 154.812 183.937 156.051C183.833 156.663 183.761 157.281 183.722 157.901C183.705 158.195 183.71 158.49 183.735 158.783C183.741 158.989 183.8 159.188 183.905 159.361L183.691 159.246C187.975 160.131 192.263 161.014 196.556 161.847L202.99 163.108L206.211 163.68C207.256 163.87 208.309 164.006 209.367 164.086L209.68 164.09C209.681 164.072 209.673 164.091 209.692 164.079C209.713 164.056 209.737 164.037 209.763 164.02C209.906 163.846 210.025 163.651 210.117 163.442C210.337 162.95 210.518 162.441 210.66 161.919C210.949 160.832 211.181 159.729 211.354 158.615C211.717 156.374 211.91 154.097 212.061 151.818C212.197 149.537 212.241 147.251 212.194 144.959C212.162 142.67 212.032 140.38 211.788 138.099C211.787 138.085 211.791 138.071 211.799 138.06C211.807 138.049 211.819 138.042 211.833 138.04C211.846 138.038 211.859 138.041 211.87 138.05C211.881 138.058 211.889 138.07 211.891 138.084C212.257 140.351 212.509 142.64 212.663 144.939C212.797 147.238 212.837 149.543 212.782 151.852C212.728 154.164 212.547 156.471 212.241 158.762C212.088 159.918 211.874 161.065 211.599 162.197C211.454 162.783 211.263 163.355 211.029 163.909C210.897 164.224 210.72 164.516 210.505 164.776C210.428 164.851 210.345 164.924 210.261 164.992C210.148 165.063 210.027 165.119 209.901 165.158C209.724 165.176 209.565 165.175 209.395 165.181C208.274 165.112 207.157 164.977 206.049 164.779L202.804 164.221C200.649 163.82 198.495 163.419 196.35 162.974C192.061 162.075 187.78 161.143 183.506 160.18L183.471 160.172C183.402 160.157 183.339 160.119 183.292 160.065C183.017 159.735 182.861 159.314 182.853 158.876C182.829 158.532 182.831 158.187 182.858 157.843C182.913 157.189 183.002 156.539 183.127 155.896C183.364 154.622 183.671 153.376 184.011 152.143C184.689 149.675 185.463 147.247 186.261 144.83C187.073 142.417 187.89 140.008 188.73 137.608L191.276 130.418L191.27 130.436C192.241 126.472 193.503 122.593 195.045 118.834C195.819 116.9 196.926 115.133 198.311 113.623C199.065 112.896 199.941 112.322 200.895 111.931C201.321 111.75 201.735 111.537 202.132 111.292C202.595 111.011 203.097 110.81 203.621 110.696C205.555 110.37 207.505 110.161 209.463 110.072C210.42 109.983 211.373 109.876 212.31 109.696C213.248 109.544 214.171 109.303 215.068 108.977C218.71 107.531 222.499 106.531 226.359 105.998C226.372 105.996 226.386 106 226.397 106.009C226.408 106.017 226.416 106.03 226.418 106.044C226.419 106.058 226.415 106.072 226.408 106.084C226.4 106.095 226.388 106.103 226.375 106.106Z" fill="url(#paint14_linear_120_1012)" fill-opacity="0.75"/>
<path d="M238.607 117.466C238.522 117.943 238.501 118.43 238.543 118.913C238.571 119.402 238.601 119.89 238.645 120.378L238.93 123.303C239.135 125.252 239.378 127.197 239.605 129.144L239.966 132.061C240.193 133.087 240.044 134.166 239.548 135.081C239.385 135.299 239.182 135.481 238.952 135.616C238.722 135.751 238.469 135.837 238.207 135.869C237.945 135.901 237.679 135.879 237.426 135.803C237.172 135.727 236.935 135.599 236.729 135.427C236.522 135.257 236.35 135.044 236.225 134.801C236.099 134.559 236.022 134.292 235.999 134.017L235.848 132.554C235.64 130.606 235.418 128.658 235.135 126.721C235 125.754 234.816 124.795 234.585 123.848C234.528 123.617 234.45 123.393 234.352 123.178C234.332 123.13 234.302 123.088 234.265 123.055C234.227 123.021 234.182 122.997 234.134 122.985L233.814 122.839C233.386 122.645 232.953 122.462 232.518 122.286C230.779 121.574 229.028 120.893 227.261 120.269C226.384 119.977 225.474 119.561 224.632 119.853C224.24 120.05 223.915 120.368 223.7 120.764C223.484 121.16 223.388 121.616 223.425 122.071C223.424 122.122 223.404 122.171 223.368 122.207C223.333 122.243 223.286 122.263 223.237 122.262C223.205 122.261 223.174 122.251 223.146 122.234C223.118 122.217 223.095 122.193 223.079 122.164C222.59 121.269 222.039 120.412 221.431 119.601C220.844 118.788 220.156 118.059 219.387 117.436C219.011 117.138 218.59 116.908 218.143 116.754C217.651 116.591 217.179 116.371 216.734 116.097C215.826 115.552 215.059 114.782 214.5 113.855C214.492 113.842 214.486 113.828 214.482 113.814L214.477 113.797C214.337 113.251 214.405 112.67 214.666 112.176C214.907 111.72 215.223 111.312 215.598 110.971C216.32 110.323 217.114 109.771 217.965 109.328C219.632 108.439 221.377 107.723 223.176 107.19C223.222 107.176 223.27 107.177 223.315 107.193C223.36 107.209 223.4 107.239 223.429 107.279C223.457 107.318 223.474 107.366 223.476 107.416C223.479 107.466 223.466 107.516 223.441 107.558L223.434 107.57C223.146 108.081 222.96 108.647 222.886 109.236C222.844 109.536 222.821 109.838 222.817 110.141C222.842 110.443 222.839 110.75 222.891 111.05C223.085 112.271 223.52 113.436 224.167 114.469C224.484 114.995 224.826 115.504 225.194 115.992C225.595 116.452 225.972 116.937 226.39 117.382C226.823 117.812 227.234 118.269 227.687 118.678L229.062 119.888C229.065 119.89 229.067 119.893 229.069 119.896C229.071 119.899 229.072 119.902 229.072 119.906C229.073 119.909 229.073 119.913 229.072 119.916C229.071 119.92 229.07 119.923 229.068 119.926C229.063 119.932 229.057 119.935 229.05 119.936C229.043 119.937 229.037 119.936 229.031 119.932L227.603 118.782C227.131 118.392 226.699 117.952 226.244 117.538C225.799 117.112 225.41 116.625 224.992 116.169C224.606 115.68 224.245 115.17 223.91 114.64C223.214 113.581 222.736 112.38 222.508 111.115C222.447 110.798 222.44 110.471 222.408 110.148C222.405 109.822 222.422 109.496 222.461 109.172C222.529 108.508 222.729 107.865 223.048 107.287L223.306 107.666C221.554 108.236 219.85 108.957 218.212 109.824C217.404 110.249 216.649 110.776 215.964 111.395C215.623 111.641 215.353 111.98 215.183 112.376C215.013 112.771 214.95 113.209 215 113.64L214.978 113.582C215.484 114.425 216.176 115.129 216.995 115.633C217.405 115.891 217.841 116.1 218.295 116.256C218.791 116.432 219.256 116.692 219.672 117.026C220.474 117.683 221.182 118.456 221.775 119.323C222.378 120.166 222.922 121.054 223.403 121.98L223.058 122.073C223.07 121.551 223.194 121.038 223.418 120.573C223.529 120.331 223.686 120.116 223.878 119.94C224.07 119.764 224.294 119.631 224.537 119.548C225.545 119.242 226.481 119.722 227.343 120.015C229.107 120.671 230.85 121.381 232.58 122.122L233.877 122.68L234.201 122.823C234.266 122.844 234.325 122.878 234.377 122.924C234.428 122.97 234.471 123.026 234.501 123.089C234.609 123.315 234.695 123.551 234.758 123.795C235.017 124.748 235.179 125.716 235.352 126.682C235.691 128.616 235.968 130.559 236.229 132.504L236.419 133.964C236.439 134.179 236.501 134.387 236.601 134.576C236.7 134.765 236.836 134.931 236.998 135.063C237.321 135.329 237.732 135.45 238.139 135.399C238.547 135.349 238.919 135.13 239.174 134.792C239.4 134.41 239.538 133.977 239.576 133.529C239.623 133.059 239.607 132.585 239.529 132.12L239.199 129.195C238.979 127.245 238.804 125.29 238.646 123.332C238.566 122.354 238.5 121.373 238.464 120.391C238.441 119.9 238.433 119.408 238.426 118.916C238.404 118.42 238.449 117.922 238.562 117.44C238.564 117.433 238.569 117.428 238.574 117.424C238.58 117.421 238.587 117.421 238.594 117.423C238.6 117.425 238.605 117.429 238.608 117.436C238.612 117.442 238.612 117.449 238.61 117.456L238.607 117.466Z" fill="url(#paint15_linear_120_1012)" fill-opacity="0.75"/>
<path d="M240.945 111.141C241.31 111.685 241.633 112.259 241.909 112.858C242.047 113.159 242.147 113.48 242.268 113.792C242.367 114.116 242.441 114.448 242.487 114.785C242.602 115.475 242.548 116.184 242.329 116.846C242.084 117.524 241.618 118.089 241.013 118.439C240.99 118.452 240.964 118.461 240.937 118.463C240.911 118.466 240.884 118.464 240.858 118.455C240.832 118.447 240.809 118.434 240.788 118.416C240.767 118.399 240.75 118.377 240.737 118.352C240.725 118.328 240.717 118.302 240.714 118.275L240.714 118.267C240.63 117.316 240.437 116.379 240.14 115.476C239.991 115.03 239.756 114.622 239.45 114.275C239.301 114.119 239.108 114.015 238.9 113.979C238.798 113.993 238.7 114.027 238.611 114.081C238.522 114.135 238.444 114.207 238.382 114.294C237.865 115.076 237.491 115.953 237.28 116.88C237.017 117.797 236.796 118.736 236.604 119.669L236.608 119.579L236.843 121.282C236.853 121.355 236.836 121.429 236.795 121.489C236.754 121.549 236.692 121.59 236.623 121.603C236.553 121.616 236.482 121.6 236.424 121.559C236.365 121.518 236.324 121.454 236.31 121.382L236.309 121.376C236.165 120.575 236.082 119.763 236.06 118.948C236.019 118.14 236.038 117.334 236.073 116.531C236.138 114.926 236.297 113.327 236.548 111.742C236.549 111.735 236.553 111.729 236.559 111.725C236.565 111.72 236.571 111.719 236.578 111.72C236.585 111.721 236.59 111.724 236.594 111.73C236.598 111.735 236.6 111.741 236.6 111.748C236.55 113.349 236.525 114.946 236.526 116.54C236.505 118.12 236.611 119.699 236.84 121.261L236.305 121.355L236.117 119.647L236.116 119.638C236.113 119.611 236.114 119.584 236.12 119.557C236.337 118.607 236.606 117.671 236.928 116.755C237.222 115.817 237.668 114.939 238.245 114.159C238.325 114.055 238.425 113.969 238.539 113.908C238.652 113.846 238.776 113.809 238.903 113.8C239.152 113.842 239.381 113.966 239.558 114.154C239.893 114.507 240.155 114.929 240.327 115.393C240.7 116.296 240.97 117.242 241.131 118.211L240.832 118.039C241.319 117.716 241.693 117.237 241.9 116.672C242.11 116.087 242.175 115.456 242.088 114.837C242.073 114.521 241.979 114.211 241.933 113.894C241.839 113.588 241.767 113.272 241.654 112.969C241.53 112.672 241.433 112.359 241.302 112.062L240.9 111.17C240.899 111.167 240.898 111.163 240.897 111.16C240.897 111.156 240.897 111.152 240.898 111.149C240.899 111.145 240.901 111.142 240.903 111.14C240.905 111.137 240.908 111.134 240.911 111.133C240.917 111.13 240.923 111.129 240.929 111.131C240.936 111.132 240.941 111.136 240.945 111.141Z" fill="url(#paint16_linear_120_1012)" fill-opacity="0.75"/>
<path d="M237.182 124.169C237.384 124.161 237.575 124.072 237.716 123.919C237.856 123.766 237.935 123.562 237.935 123.35C237.935 123.137 237.856 122.933 237.716 122.78C237.575 122.628 237.384 122.538 237.182 122.531C236.98 122.538 236.789 122.628 236.648 122.78C236.508 122.933 236.429 123.137 236.429 123.35C236.429 123.562 236.508 123.766 236.648 123.919C236.789 124.072 236.98 124.161 237.182 124.169Z" fill="url(#paint17_linear_120_1012)" fill-opacity="0.75"/>
<path d="M237.743 128.69C237.945 128.682 238.137 128.593 238.277 128.44C238.417 128.287 238.496 128.083 238.496 127.871C238.496 127.658 238.417 127.454 238.277 127.301C238.137 127.148 237.945 127.059 237.743 127.052C237.541 127.059 237.35 127.148 237.209 127.301C237.069 127.454 236.99 127.658 236.99 127.871C236.99 128.083 237.069 128.287 237.209 128.44C237.35 128.593 237.541 128.682 237.743 128.69Z" fill="url(#paint18_linear_120_1012)" fill-opacity="0.75"/>
<path d="M238.211 133.014C238.413 133.006 238.604 132.917 238.745 132.764C238.885 132.611 238.964 132.407 238.964 132.195C238.964 131.982 238.885 131.778 238.745 131.625C238.604 131.473 238.413 131.383 238.211 131.376C238.009 131.383 237.817 131.473 237.677 131.625C237.536 131.778 237.458 131.982 237.458 132.195C237.458 132.407 237.536 132.611 237.677 132.764C237.817 132.917 238.009 133.006 238.211 133.014Z" fill="url(#paint19_linear_120_1012)" fill-opacity="0.75"/>
<path d="M243.18 109.605C246.295 109.686 249.407 109.904 252.51 110.239C254.062 110.397 255.609 110.626 257.151 110.901C258.72 111.131 260.254 111.57 261.717 112.208C261.909 112.308 262.089 112.431 262.253 112.576C262.404 112.719 262.547 112.872 262.681 113.034C262.939 113.326 263.219 113.606 263.498 113.895C264.074 114.469 264.594 115.103 265.05 115.786C265.922 117.176 266.57 118.708 266.967 120.32C267.75 123.5 268.235 126.753 268.416 130.033C268.038 126.791 267.426 123.584 266.584 120.441C266.159 118.89 265.51 117.416 264.662 116.071C264.217 115.418 263.711 114.815 263.151 114.269C262.873 113.986 262.585 113.705 262.311 113.4C262.085 113.104 261.8 112.862 261.477 112.691C260.064 112.065 258.583 111.628 257.067 111.39C255.543 111.092 254.003 110.877 252.463 110.654C249.38 110.233 246.282 109.911 243.18 109.605Z" fill="url(#paint20_linear_120_1012)" fill-opacity="0.75"/>
<path d="M200.431 116.532C201.867 116.212 203.363 116.394 204.691 117.049C206.023 117.721 207.161 118.754 207.988 120.042C208.401 120.675 208.76 121.344 209.063 122.043C209.349 122.743 209.6 123.459 209.813 124.187C209.97 124.93 210.163 125.662 210.286 126.406C210.368 127.159 210.466 127.907 210.531 128.657C210.349 127.924 210.202 127.19 210.037 126.462C209.865 125.736 209.631 125.028 209.433 124.314C209.167 123.625 208.932 122.923 208.635 122.253C208.33 121.59 207.971 120.955 207.563 120.355C206.798 119.125 205.75 118.117 204.517 117.425C203.261 116.732 201.846 116.422 200.431 116.532Z" fill="url(#paint21_linear_120_1012)" fill-opacity="0.75"/>
<path d="M218.884 151.065C219.243 152.067 219.62 153.058 220.059 154.021C220.474 154.994 220.929 155.946 221.412 156.881C222.368 158.755 223.46 160.548 224.679 162.244C225.88 163.95 227.247 165.521 228.756 166.931L229.909 167.964C230.304 168.295 230.731 168.582 231.139 168.895L231.754 169.366C231.968 169.509 232.19 169.636 232.408 169.773L233.722 170.589C231.837 169.745 230.077 168.62 228.497 167.25C226.921 165.865 225.502 164.295 224.265 162.572C223.045 160.842 221.972 159.001 221.059 157.073C220.144 155.152 219.415 153.139 218.884 151.065Z" fill="url(#paint22_linear_120_1012)" fill-opacity="0.75"/>
<path d="M186.425 160.322C186.402 163.588 186.333 166.852 186.283 170.116C186.241 173.381 186.136 176.643 186.065 179.907L186.063 179.935L186.058 179.965C185.869 181.269 186.027 182.603 186.516 183.818C187.035 184.992 187.966 185.91 189.115 186.378C189.41 186.479 189.699 186.596 189.997 186.687L190.923 186.875C191.563 186.974 192.225 187.047 192.878 187.122C194.19 187.269 195.503 187.399 196.82 187.514C202.084 187.979 207.365 188.217 212.643 188.341C217.919 188.469 223.198 188.286 228.454 187.792C233.677 187.262 238.982 186.421 243.727 184.033C243.774 184.009 243.827 184.005 243.876 184.02C243.925 184.035 243.968 184.068 243.995 184.114C244.369 184.727 244.887 185.227 245.499 185.567C246.124 185.913 246.813 186.11 247.519 186.143C248.234 186.172 248.949 186.093 249.643 185.908C249.987 185.802 250.332 185.691 250.675 185.572L251.677 185.135L250.697 185.63C250.36 185.77 250.018 185.902 249.675 186.029C248.975 186.26 248.245 186.376 247.511 186.375C246.757 186.385 246.012 186.204 245.339 185.846C244.667 185.489 244.086 184.965 243.648 184.321L243.915 184.403C241.544 185.701 239.02 186.666 236.409 187.271C233.814 187.897 231.188 188.366 228.542 188.676C223.256 189.244 217.942 189.482 212.629 189.391C207.32 189.355 202.021 189.001 196.737 188.506C195.416 188.38 194.096 188.237 192.777 188.078C192.115 187.996 191.46 187.918 190.793 187.809L189.771 187.592C189.436 187.487 189.105 187.353 188.773 187.233C187.434 186.656 186.364 185.55 185.79 184.154C185.268 182.779 185.125 181.278 185.378 179.822L185.372 179.879C185.536 176.619 185.667 173.358 185.86 170.099C186.045 166.84 186.212 163.58 186.425 160.322Z" fill="url(#paint23_linear_120_1012)" fill-opacity="0.75"/>
<path d="M205.67 164.156C205.756 165.951 205.805 167.746 205.864 169.541L205.747 169.354C211.756 171.618 218.064 172.883 224.444 173.103C227.615 173.204 230.788 172.943 233.906 172.324L236.227 171.796C236.994 171.591 237.738 171.302 238.495 171.059L239.63 170.686C240 170.539 240.359 170.363 240.724 170.202L242.912 169.217L242.727 169.512C242.813 168.967 243.016 168.45 243.322 168C243.606 167.565 243.96 167.184 244.368 166.876C245.165 166.282 246.081 165.889 247.046 165.726C247.515 165.64 247.987 165.58 248.462 165.546C248.935 165.546 249.408 165.503 249.878 165.539C250.348 165.58 250.819 165.58 251.284 165.655L252.674 165.872L251.274 165.79C250.808 165.765 250.342 165.788 249.878 165.784C249.413 165.781 248.952 165.857 248.492 165.889C248.037 165.955 247.585 166.046 247.139 166.161C246.263 166.38 245.44 166.788 244.721 167.357C244.038 167.896 243.573 168.686 243.42 169.57L243.417 169.594C243.409 169.651 243.389 169.706 243.357 169.753C243.325 169.8 243.283 169.839 243.234 169.865C240.36 171.47 237.285 172.641 234.1 173.344C230.914 174.021 227.663 174.299 224.414 174.171C221.177 174.046 217.958 173.606 214.799 172.856C213.225 172.469 211.664 172.032 210.127 171.513C208.582 171.018 207.067 170.422 205.593 169.729L205.584 169.724C205.55 169.708 205.522 169.683 205.503 169.65C205.484 169.617 205.474 169.579 205.475 169.541C205.535 167.746 205.583 165.951 205.67 164.156Z" fill="url(#paint24_linear_120_1012)" fill-opacity="0.75"/>
<path d="M190.581 173.676C191.395 172.497 192.434 171.509 193.631 170.774C194.828 170.028 196.125 169.474 197.478 169.13C198.159 168.985 198.847 168.884 199.539 168.828C200.229 168.757 200.922 168.745 201.613 168.793C202.305 168.809 202.986 168.955 203.668 169.032C204.341 169.184 205.01 169.357 205.67 169.541C204.984 169.477 204.312 169.359 203.635 169.298C202.955 169.275 202.28 169.177 201.603 169.212C200.255 169.206 198.91 169.356 197.594 169.662C196.282 169.975 195.016 170.471 193.828 171.136C192.624 171.796 191.528 172.653 190.581 173.676Z" fill="url(#paint25_linear_120_1012)" fill-opacity="0.75"/>
<path d="M243.073 169.541C243.28 170.016 243.526 170.472 243.806 170.904C244.071 171.327 244.412 171.691 244.809 171.976C244.908 172.037 245.011 172.09 245.118 172.134C245.263 172.191 245.394 172.281 245.501 172.398C245.597 172.529 245.661 172.683 245.686 172.847C245.711 173.01 245.697 173.177 245.645 173.334C245.475 173.867 245.199 174.357 244.835 174.77L244.832 174.773L244.817 174.788C244.43 175.173 244.137 175.651 243.966 176.182C243.887 176.432 243.863 176.698 243.894 176.96C243.926 177.221 244.012 177.472 244.148 177.694C244.4 178.125 244.953 178.545 245.165 179.206C245.23 179.376 245.26 179.56 245.251 179.744C245.242 179.927 245.195 180.107 245.113 180.27C244.935 180.571 244.667 180.801 244.351 180.926L244.421 180.875C244.012 181.329 243.699 181.869 243.503 182.46C243.408 182.754 243.379 183.068 243.418 183.376C243.483 183.688 243.622 183.977 243.822 184.218C243.577 184.004 243.395 183.723 243.296 183.406C243.217 183.076 243.212 182.732 243.281 182.399C243.347 182.069 243.461 181.751 243.618 181.457C243.768 181.159 243.946 180.877 244.148 180.615C244.16 180.599 244.175 180.586 244.192 180.577L244.218 180.564C244.437 180.457 244.619 180.279 244.736 180.056C244.782 179.948 244.807 179.831 244.807 179.713C244.807 179.594 244.783 179.477 244.738 179.369C244.568 178.859 244.112 178.542 243.732 177.975C243.549 177.691 243.429 177.368 243.382 177.029C243.345 176.689 243.38 176.346 243.484 176.022C243.693 175.406 244.045 174.856 244.509 174.42L244.491 174.438C244.812 174.082 245.067 173.665 245.24 173.21C245.281 173.121 245.3 173.023 245.296 172.925C245.292 172.827 245.264 172.731 245.217 172.647C245.153 172.572 245.075 172.511 244.988 172.469C244.865 172.409 244.747 172.338 244.636 172.257C244.219 171.926 243.88 171.499 243.646 171.009C243.404 170.543 243.212 170.051 243.073 169.541Z" fill="url(#paint26_linear_120_1012)" fill-opacity="0.75"/>
<path d="M252.362 170.093C252.347 170.425 252.331 170.753 252.316 171.081C251.687 171.075 251.053 171.048 250.425 170.977C249.685 170.914 248.951 170.784 248.232 170.589C248.951 170.394 249.685 170.265 250.425 170.202C251.069 170.131 251.718 170.103 252.362 170.093Z" fill="url(#paint27_linear_120_1012)" fill-opacity="0.75"/>
<path d="M252.196 173.767C252.175 174.1 252.165 174.428 252.149 174.75C251.573 174.739 251.001 174.712 250.425 174.646C249.685 174.583 248.951 174.453 248.232 174.258C248.951 174.064 249.685 173.934 250.425 173.871C251.017 173.805 251.604 173.778 252.196 173.767Z" fill="url(#paint28_linear_120_1012)" fill-opacity="0.75"/>
<path d="M252.04 177.305C252.03 177.638 252.014 177.966 252.004 178.288C251.479 178.272 250.949 178.244 250.425 178.184C249.685 178.121 248.951 177.991 248.232 177.797C248.951 177.602 249.685 177.472 250.425 177.409C250.965 177.349 251.505 177.322 252.04 177.305Z" fill="url(#paint29_linear_120_1012)" fill-opacity="0.75"/>
<path d="M250.425 181.635C250.913 181.58 251.401 181.553 251.884 181.537C251.869 181.87 251.859 182.192 251.848 182.503C251.375 182.492 250.897 182.465 250.425 182.41C249.685 182.347 248.951 182.218 248.232 182.023C248.951 181.828 249.685 181.698 250.425 181.635Z" fill="url(#paint30_linear_120_1012)" fill-opacity="0.75"/>
<path d="M234.411 189.762C234.411 189.762 225.051 180.039 221.556 186.344C218.062 192.649 220.464 197.274 223.06 200.395C226.224 204.197 226.383 205.335 227.321 206.461C228.26 207.588 238.854 221.2 252.059 220.435C259.762 219.989 259.631 215.675 258.184 212.157C257.132 209.666 255.443 207.531 253.304 205.99C249.086 202.892 239.659 195.716 234.411 189.762Z" fill="url(#paint31_linear_120_1012)" fill-opacity="0.75"/>
<path d="M231.218 186.984C233.231 187.083 235.239 187.226 237.246 187.363L243.265 187.793C245.27 187.96 247.276 188.082 249.282 188.194C250.285 188.259 251.289 188.297 252.292 188.315C252.792 188.314 253.297 188.352 253.796 188.314L254.547 188.276L255.291 188.153C253.31 188.575 251.287 188.73 249.269 188.614C247.252 188.588 245.241 188.462 243.23 188.337C241.222 188.171 239.214 188.006 237.212 187.78C235.21 187.555 233.21 187.308 231.218 186.984Z" fill="url(#paint32_linear_120_1012)" fill-opacity="0.75"/>
<path d="M251.25 204.735C251.193 204.735 251.138 204.715 251.092 204.679C251.047 204.642 251.014 204.591 250.999 204.534C250.984 204.476 250.988 204.415 251.009 204.359C251.03 204.303 251.068 204.257 251.117 204.226C251.524 203.975 261.117 198.055 264.707 199.286C264.772 199.308 264.826 199.358 264.857 199.422C264.888 199.486 264.893 199.561 264.871 199.63C264.85 199.698 264.804 199.755 264.742 199.788C264.681 199.821 264.61 199.826 264.545 199.804C261.179 198.645 251.479 204.636 251.382 204.697C251.342 204.722 251.296 204.735 251.25 204.735Z" fill="url(#paint33_linear_120_1012)" fill-opacity="0.75"/>
<path d="M308.606 164.594L308.611 164.594L308.63 164.598L331.259 173.412L331.278 173.42C333.528 174.526 335.668 175.862 337.668 177.409C339.688 178.959 341.467 180.828 342.942 182.95C343.702 184.02 344.298 185.208 344.71 186.47C345.108 187.714 345.42 188.987 345.642 190.278C346.146 192.903 345.972 195.622 345.137 198.151C344.669 199.411 343.981 200.567 343.109 201.56C342.23 202.539 341.204 203.358 340.072 203.985C338.947 204.609 337.748 205.072 336.507 205.362C335.889 205.498 335.264 205.596 334.636 205.653L332.799 205.864C327.903 206.414 323.007 206.973 318.106 207.475C308.304 208.483 298.5 209.471 288.674 210.231C286.218 210.423 283.76 210.603 281.299 210.751C278.834 210.881 276.387 211.062 273.881 210.945C272.594 210.834 271.37 210.311 270.375 209.446C269.397 208.617 268.538 207.645 267.822 206.56C266.409 204.411 265.271 202.075 264.438 199.613C264.427 199.58 264.423 199.545 264.428 199.511C264.433 199.477 264.446 199.444 264.466 199.417C264.486 199.389 264.512 199.368 264.542 199.353C264.572 199.339 264.605 199.334 264.638 199.336L264.645 199.337C265.697 199.479 266.762 199.476 267.814 199.327C268.308 199.227 268.831 199.019 268.975 198.578C269.063 198.068 268.967 197.541 268.706 197.101C268.189 196.12 267.584 195.194 266.9 194.334C266.232 193.45 265.539 192.582 264.852 191.708C264.164 190.834 263.482 189.954 262.821 189.054C262.194 188.151 261.437 187.356 260.576 186.698C260.173 186.361 259.699 186.128 259.194 186.019C258.689 185.911 258.166 185.929 257.669 186.073C256.702 186.483 255.914 187.254 255.454 188.237L255.448 188.248C255.432 188.28 255.406 188.307 255.375 188.324C255.344 188.342 255.308 188.349 255.273 188.346C255.238 188.342 255.204 188.328 255.177 188.304C255.15 188.281 255.129 188.249 255.119 188.214C254.779 187.114 254.602 185.966 254.592 184.81C254.59 184.221 254.678 183.635 254.855 183.075C255.038 182.494 255.385 181.985 255.85 181.616L255.824 181.64C256.249 181.249 256.738 180.94 257.267 180.728C257.77 180.508 258.284 180.315 258.806 180.151C259.843 179.817 260.892 179.547 261.946 179.301C264.054 178.815 266.177 178.427 268.304 178.072C272.56 177.37 276.833 176.815 281.11 176.31C289.665 175.302 298.237 174.501 306.824 173.837L306.451 174.21C306.992 170.616 307.693 167.147 308.357 163.625L310.42 153.109L314.567 132.08L314.759 132.63C314.295 132.359 313.793 132.169 313.271 132.066C312.704 131.93 312.121 131.817 311.532 131.727C310.355 131.539 309.16 131.412 307.964 131.3C305.57 131.078 303.162 130.948 300.754 130.833C295.935 130.608 291.107 130.504 286.278 130.444C276.621 130.327 266.956 130.416 257.298 130.556L257.647 130.395C257.325 130.819 257.076 131.299 256.912 131.814C256.714 132.361 256.548 132.932 256.399 133.511C256.102 134.67 255.87 135.859 255.661 137.053C255.247 139.443 254.932 141.86 254.655 144.282C254.105 149.127 253.707 153.997 253.362 158.871C253.022 163.746 252.737 168.626 252.506 173.51C252.25 178.386 252.08 183.278 251.905 188.16L251.905 188.165C251.903 188.228 251.877 188.287 251.834 188.33C251.79 188.373 251.732 188.396 251.673 188.394L231.872 187.854C231.858 187.853 231.845 187.847 231.836 187.837C231.826 187.827 231.821 187.813 231.821 187.798C231.821 187.784 231.827 187.77 231.837 187.76C231.847 187.75 231.86 187.745 231.873 187.745L251.68 187.914L251.448 188.148C251.566 183.254 251.7 178.368 251.91 173.476C252.098 168.592 252.339 163.706 252.634 158.818C252.935 153.934 253.289 149.051 253.797 144.178C254.054 141.742 254.348 139.308 254.745 136.881C254.947 135.668 255.171 134.457 255.468 133.252C255.617 132.649 255.785 132.048 255.995 131.449C256.198 130.8 256.514 130.197 256.928 129.67C256.969 129.621 257.019 129.582 257.076 129.554C257.132 129.527 257.193 129.511 257.255 129.51L257.277 129.509C262.113 129.378 266.947 129.331 271.782 129.294C276.618 129.261 281.454 129.267 286.29 129.31C291.127 129.362 295.964 129.458 300.802 129.676C303.222 129.79 305.641 129.94 308.061 130.172C309.271 130.291 310.481 130.425 311.693 130.623C312.299 130.719 312.905 130.838 313.515 130.988C314.183 131.121 314.821 131.383 315.399 131.759C315.477 131.815 315.538 131.893 315.574 131.985C315.609 132.077 315.618 132.177 315.598 132.274L315.591 132.31L311.361 153.314L309.236 163.814C308.545 167.306 307.804 170.837 307.249 174.307L307.246 174.33C307.231 174.423 307.186 174.509 307.119 174.572C307.052 174.636 306.966 174.674 306.876 174.68C298.299 175.261 289.723 175.979 281.171 176.904C276.896 177.379 272.626 177.905 268.378 178.576C266.255 178.915 264.137 179.288 262.04 179.757C260.993 179.994 259.951 180.255 258.929 180.576C258.42 180.733 257.918 180.917 257.427 181.128C256.948 181.316 256.503 181.589 256.112 181.935L256.105 181.942L256.086 181.959C255.684 182.276 255.383 182.714 255.225 183.214C255.059 183.73 254.975 184.271 254.975 184.816C254.979 185.928 255.143 187.032 255.463 188.092L255.128 188.069C255.634 186.998 256.502 186.165 257.562 185.731C258.109 185.574 258.683 185.554 259.238 185.673C259.793 185.793 260.314 186.048 260.758 186.419C261.639 187.105 262.419 187.923 263.073 188.848C263.735 189.74 264.419 190.613 265.11 191.483C265.8 192.353 266.497 193.218 267.175 194.105C267.879 194.982 268.501 195.927 269.034 196.929C269.347 197.461 269.452 198.1 269.326 198.712C269.211 199.024 268.99 199.28 268.705 199.43C268.448 199.568 268.173 199.666 267.888 199.72C266.801 199.883 265.697 199.894 264.607 199.753L264.814 199.478C265.639 201.896 266.776 204.184 268.194 206.276C268.895 207.312 269.732 208.238 270.682 209.025C271.604 209.813 272.736 210.283 273.922 210.37C276.337 210.451 278.813 210.243 281.259 210.081C283.712 209.904 286.165 209.693 288.616 209.471C298.42 208.558 308.219 207.57 318.014 206.509L332.706 204.942C333.922 204.787 335.181 204.727 336.322 204.474C337.489 204.207 338.616 203.778 339.675 203.198C341.81 202.073 343.483 200.168 344.379 197.841C345.171 195.456 345.342 192.892 344.873 190.415C344.665 189.158 344.374 187.918 344.001 186.704C343.624 185.511 343.073 184.388 342.368 183.373C340.954 181.293 339.243 179.456 337.294 177.927C335.343 176.381 333.251 175.042 331.049 173.928L331.068 173.937L308.593 164.7L308.611 164.704L308.606 164.704C308.592 164.704 308.579 164.698 308.569 164.688C308.559 164.677 308.554 164.664 308.554 164.649C308.554 164.635 308.559 164.621 308.569 164.61C308.579 164.6 308.592 164.594 308.606 164.594Z" fill="url(#paint34_linear_120_1012)" fill-opacity="0.75"/>
<path d="M257.288 130.033C253.485 134.553 251.677 188.154 251.677 188.154H255.293C255.293 188.154 253.781 183.448 255.968 181.788C259.942 177.485 306.85 174.258 306.85 174.258C306.954 173.314 307.655 169.557 308.611 164.649C311.032 152.151 315.079 132.195 315.079 132.195C310.965 128.853 257.288 130.033 257.288 130.033ZM283.845 154.603C279.3 154.603 275.616 153.456 275.616 152.047C275.616 150.639 279.3 149.492 283.845 149.492C288.391 149.492 292.075 150.639 292.075 152.047C292.075 153.456 288.391 154.603 283.845 154.603Z" fill="url(#paint35_linear_120_1012)" fill-opacity="0.75"/>
<path d="M204.871 188.606C204.269 192.371 203.953 196.18 203.928 199.997C203.871 203.803 204.218 207.603 204.961 211.327C205.756 215.002 207.134 218.633 209.558 221.385C210.794 222.734 212.229 223.866 213.806 224.738L214.984 225.427C215.379 225.653 215.795 225.844 216.199 226.054C217.01 226.47 217.823 226.88 218.662 227.241C221.981 228.752 225.393 230.058 228.837 231.259C232.278 232.47 235.752 233.581 239.238 234.653C246.205 236.824 253.239 238.716 260.294 240.607C262.1 241.112 263.791 241.992 265.269 243.194C266.747 244.397 267.981 245.898 268.899 247.609C269.352 248.461 269.727 249.356 270.02 250.283C270.287 251.211 270.488 252.159 270.623 253.118L271.517 258.774C272.748 266.308 273.94 273.85 275.219 281.375L282.907 326.524L282.546 326.197C287.912 326.279 293.293 326.204 298.649 325.902C301.326 325.753 304.001 325.541 306.648 325.175C307.964 324.997 309.271 324.749 310.564 324.43C311.197 324.273 311.819 324.074 312.428 323.833C312.99 323.628 313.508 323.308 313.952 322.89L313.82 323.27C313.438 313.601 312.98 303.931 312.503 294.265C312.02 284.599 311.424 274.94 310.821 265.282C310.191 255.627 309.468 245.976 308.474 236.357C307.976 231.548 307.392 226.748 306.66 221.976C306.287 219.591 305.873 217.211 305.317 214.868C305.049 213.695 304.714 212.541 304.314 211.411C304.114 210.848 303.868 210.304 303.58 209.786C303.459 209.521 303.289 209.283 303.081 209.087C302.872 208.891 302.629 208.74 302.365 208.643L302.36 208.642C302.347 208.639 302.335 208.631 302.328 208.619C302.32 208.607 302.317 208.592 302.32 208.578C302.322 208.564 302.33 208.551 302.342 208.543C302.353 208.535 302.367 208.532 302.38 208.535C302.664 208.628 302.926 208.78 303.153 208.981C303.38 209.182 303.566 209.429 303.701 209.706C304.005 210.226 304.267 210.773 304.482 211.34C304.91 212.469 305.273 213.624 305.568 214.799C306.178 217.141 306.643 219.518 307.069 221.901C307.909 226.669 308.513 231.476 309.078 236.284C310.183 245.904 311.017 255.554 311.759 265.209C312.516 274.864 313.059 284.534 313.581 294.204C314.101 303.874 314.522 313.55 314.842 323.231L314.842 323.248C314.844 323.315 314.834 323.381 314.811 323.444C314.788 323.506 314.754 323.563 314.71 323.611C314.16 324.153 313.508 324.567 312.795 324.824C312.144 325.078 311.477 325.288 310.8 325.452C309.472 325.773 308.128 326.021 306.775 326.195C304.085 326.552 301.39 326.75 298.695 326.886C293.303 327.127 287.917 327.133 282.526 326.987C282.44 326.985 282.356 326.951 282.29 326.891C282.225 326.831 282.181 326.75 282.166 326.66L274.881 281.437C273.665 273.9 272.361 266.379 271.096 258.851L270.12 253.21C269.976 252.28 269.768 251.363 269.495 250.465C269.202 249.582 268.83 248.729 268.384 247.919C267.488 246.304 266.294 244.893 264.873 243.769C263.451 242.646 261.83 241.832 260.105 241.377C253.03 239.632 245.972 237.715 238.978 235.587C235.477 234.532 232.006 233.366 228.554 232.138C225.102 230.911 221.679 229.578 218.332 228.03C217.489 227.661 216.665 227.24 215.844 226.813C215.434 226.597 215.017 226.401 214.614 226.168L213.412 225.456C211.771 224.534 210.286 223.333 209.019 221.9C206.512 218.964 205.161 215.205 204.401 211.457C203.688 207.683 203.406 203.834 203.562 199.99C203.675 196.161 204.079 192.347 204.769 188.585C204.772 188.57 204.78 188.558 204.791 188.55C204.803 188.542 204.817 188.539 204.83 188.542C204.844 188.545 204.855 188.553 204.863 188.565C204.87 188.577 204.873 188.592 204.871 188.606Z" fill="url(#paint36_linear_120_1012)" fill-opacity="0.75"/>
<path d="M290.952 333.57C290.952 333.57 286.464 333.078 286.464 335.339C286.464 337.599 286.838 354.11 288.708 354.602C290.578 355.093 345.377 374.946 359.966 358.828C359.966 358.828 370.065 352.931 350.988 346.051C331.911 339.172 319.942 332.292 319.942 332.292C319.942 332.292 301.8 332.882 301.426 334.847C301.052 336.813 303.857 343.889 303.857 343.889C303.857 343.889 291.888 346.838 290.952 333.57Z" fill="url(#paint37_linear_120_1012)" fill-opacity="0.75"/>
<path d="M290.953 333.843C290.931 333.843 290.909 333.84 290.888 333.835C290.821 333.817 290.764 333.771 290.729 333.709C290.694 333.647 290.684 333.572 290.701 333.502C290.948 332.366 290.979 331.19 290.793 330.042C290.607 328.893 290.208 327.794 289.618 326.808C289.598 326.779 289.584 326.745 289.577 326.71C289.569 326.675 289.569 326.639 289.575 326.604C289.581 326.569 289.593 326.535 289.611 326.505C289.63 326.474 289.654 326.448 289.682 326.428C289.71 326.407 289.741 326.393 289.774 326.385C289.808 326.377 289.842 326.376 289.876 326.383C289.909 326.389 289.941 326.402 289.97 326.421C289.999 326.441 290.024 326.466 290.043 326.495C290.684 327.543 291.117 328.715 291.316 329.942C291.516 331.17 291.478 332.427 291.204 333.638C291.19 333.697 291.157 333.749 291.112 333.786C291.066 333.823 291.01 333.843 290.953 333.843Z" fill="url(#paint38_linear_120_1012)" fill-opacity="0.75"/>
<path d="M317.697 332.565L317.689 332.565C312.035 332.366 306.507 326.168 306.275 325.905C306.252 325.878 306.234 325.847 306.222 325.814C306.21 325.78 306.204 325.744 306.206 325.709C306.207 325.673 306.215 325.638 306.229 325.605C306.243 325.572 306.263 325.543 306.288 325.519C306.313 325.494 306.343 325.475 306.375 325.463C306.407 325.45 306.441 325.445 306.475 325.446C306.509 325.447 306.542 325.456 306.573 325.471C306.604 325.485 306.632 325.507 306.656 325.533C306.711 325.596 312.27 331.828 317.706 332.02C317.774 332.022 317.839 332.052 317.886 332.104C317.933 332.156 317.958 332.225 317.957 332.297C317.956 332.369 317.928 332.437 317.879 332.487C317.831 332.537 317.765 332.565 317.697 332.565Z" fill="url(#paint39_linear_120_1012)" fill-opacity="0.75"/>
<path d="M187.298 185.705C187.26 185.697 187.223 185.697 187.185 185.689L187.14 185.642C187.194 185.659 187.247 185.68 187.298 185.705Z" fill="white"/>
<path d="M203.727 204.423V204.47C203.749 204.327 203.772 204.192 203.794 204.049C203.772 204.176 203.749 204.295 203.727 204.423Z" fill="white"/>
<path d="M307.463 225.223V225.239C307.433 225.247 307.41 225.255 307.381 225.263C307.41 225.247 307.433 225.239 307.463 225.223Z" fill="white"/>
<path d="M179.749 231.061L180.637 247.478L181.447 263.898C181.724 269.371 182.09 274.841 182.18 280.321C182.22 283.062 182.26 285.802 182.232 288.545L182.189 292.659C182.143 294.032 182.127 295.404 182.056 296.777C182.054 296.798 182.046 296.817 182.032 296.832C182.018 296.846 182 296.854 181.98 296.855C181.961 296.856 181.942 296.849 181.927 296.836C181.912 296.822 181.902 296.804 181.9 296.784C181.732 295.419 181.62 294.052 181.478 292.687L181.147 288.587C180.927 285.854 180.775 283.118 180.622 280.382C180.328 274.909 180.309 269.426 180.201 263.947L179.858 247.508L179.593 231.067C179.593 231.046 179.6 231.025 179.614 231.01C179.629 230.994 179.648 230.985 179.668 230.984C179.689 230.983 179.708 230.991 179.723 231.005C179.739 231.02 179.748 231.04 179.749 231.061Z" fill="url(#paint40_linear_120_1012)" fill-opacity="0.75"/>
<path d="M222.204 262.12L222.641 278.838L222.999 295.558C223.125 301.131 223.34 306.703 223.28 312.278C223.244 315.065 223.209 317.852 223.106 320.64L222.949 324.822C222.866 326.216 222.812 327.61 222.703 329.005C222.701 329.025 222.693 329.044 222.678 329.058C222.664 329.072 222.645 329.08 222.626 329.08C222.606 329.08 222.587 329.073 222.573 329.059C222.558 329.045 222.549 329.026 222.547 329.006C222.417 327.613 222.342 326.221 222.238 324.828L222.019 320.649C221.875 317.863 221.798 315.077 221.721 312.291C221.578 306.718 221.71 301.142 221.752 295.568L221.861 278.845L222.048 262.121C222.049 262.1 222.057 262.079 222.071 262.064C222.086 262.049 222.105 262.04 222.126 262.04C222.146 262.04 222.166 262.048 222.18 262.063C222.195 262.078 222.204 262.098 222.204 262.12Z" fill="url(#paint41_linear_120_1012)" fill-opacity="0.75"/>
<path d="M181.978 296.873C185.627 296.873 188.586 296.287 188.586 295.563C188.586 294.839 185.627 294.252 181.978 294.252C178.328 294.252 175.369 294.839 175.369 295.563C175.369 296.287 178.328 296.873 181.978 296.873Z" fill="url(#paint42_linear_120_1012)" fill-opacity="0.75"/>
<path d="M222.376 329.273C226.025 329.273 228.984 328.686 228.984 327.962C228.984 327.238 226.025 326.652 222.376 326.652C218.726 326.652 215.767 327.238 215.767 327.962C215.767 328.686 218.726 329.273 222.376 329.273Z" fill="url(#paint43_linear_120_1012)" fill-opacity="0.75"/>
<path d="M266.324 251.307L266.905 258.977L267.408 266.65C267.566 269.208 267.858 271.761 267.834 274.326C267.851 276.903 267.707 279.478 267.403 282.036C267.4 282.055 267.391 282.073 267.377 282.086C267.363 282.099 267.346 282.107 267.327 282.107C267.308 282.108 267.29 282.102 267.276 282.09C267.261 282.078 267.251 282.061 267.247 282.042C266.763 279.515 266.439 276.958 266.276 274.387C266.072 271.83 266.185 269.262 266.162 266.698L266.126 259.007L266.168 251.313C266.168 251.292 266.176 251.271 266.19 251.256C266.204 251.241 266.223 251.232 266.243 251.231C266.263 251.231 266.283 251.238 266.298 251.252C266.313 251.266 266.322 251.286 266.324 251.307Z" fill="url(#paint44_linear_120_1012)" fill-opacity="0.75"/>
<path d="M324.385 233.742L324.82 250.265L325.177 266.789C325.302 272.297 325.517 277.805 325.456 283.314C325.42 286.069 325.384 288.824 325.281 291.579L325.125 295.712C325.041 297.09 324.987 298.468 324.878 299.846C324.876 299.867 324.867 299.886 324.853 299.9C324.839 299.914 324.82 299.921 324.8 299.922C324.781 299.922 324.762 299.914 324.747 299.9C324.733 299.887 324.724 299.868 324.722 299.847C324.592 298.471 324.517 297.095 324.413 295.718L324.195 291.588C324.051 288.835 323.974 286.081 323.897 283.327C323.754 277.819 323.887 272.309 323.93 266.8L324.04 250.272L324.229 233.743C324.229 233.722 324.237 233.701 324.252 233.686C324.266 233.671 324.286 233.662 324.306 233.662C324.327 233.662 324.346 233.67 324.361 233.685C324.376 233.7 324.384 233.72 324.385 233.742Z" fill="url(#paint45_linear_120_1012)" fill-opacity="0.75"/>
<path d="M267.325 282.131C270.974 282.131 273.933 281.545 273.933 280.821C273.933 280.097 270.974 279.511 267.325 279.511C263.675 279.511 260.716 280.097 260.716 280.821C260.716 281.545 263.675 282.131 267.325 282.131Z" fill="url(#paint46_linear_120_1012)" fill-opacity="0.75"/>
<path d="M324.55 300.114C328.2 300.114 331.159 299.527 331.159 298.804C331.159 298.08 328.2 297.493 324.55 297.493C320.901 297.493 317.942 298.08 317.942 298.804C317.942 299.527 320.901 300.114 324.55 300.114Z" fill="url(#paint47_linear_120_1012)" fill-opacity="0.75"/>
<path d="M255.291 188.426H251.677C251.608 188.425 251.542 188.397 251.494 188.345C251.445 188.294 251.418 188.225 251.418 188.153C251.418 188.08 251.445 188.011 251.494 187.96C251.542 187.909 251.608 187.88 251.677 187.879H255.291C255.36 187.88 255.425 187.909 255.474 187.96C255.522 188.011 255.55 188.08 255.55 188.153C255.55 188.225 255.522 188.294 255.474 188.345C255.425 188.397 255.36 188.425 255.291 188.426Z" fill="url(#paint48_linear_120_1012)" fill-opacity="0.75"/>
<defs>
<linearGradient id="paint0_linear_120_1012" x1="316.926" y1="207.68" x2="316.926" y2="225.223" gradientUnits="userSpaceOnUse">
<stop stop-color="white"/>
<stop offset="1" stop-opacity="0"/>
</linearGradient>
<linearGradient id="paint1_linear_120_1012" x1="319.283" y1="216.32" x2="319.283" y2="238.802" gradientUnits="userSpaceOnUse">
<stop stop-color="white"/>
<stop offset="1" stop-opacity="0"/>
</linearGradient>
<linearGradient id="paint2_linear_120_1012" x1="190.195" y1="223.273" x2="190.195" y2="227.458" gradientUnits="userSpaceOnUse">
<stop stop-color="white"/>
<stop offset="1" stop-opacity="0"/>
</linearGradient>
<linearGradient id="paint3_linear_120_1012" x1="217.545" y1="127.868" x2="217.545" y2="262.152" gradientUnits="userSpaceOnUse">
<stop stop-color="white"/>
<stop offset="1" stop-opacity="0"/>
</linearGradient>
<linearGradient id="paint4_linear_120_1012" x1="236.575" y1="90.277" x2="236.575" y2="111.799" gradientUnits="userSpaceOnUse">
<stop stop-color="white"/>
<stop offset="1" stop-opacity="0"/>
</linearGradient>
<linearGradient id="paint5_linear_120_1012" x1="235.392" y1="70.9062" x2="235.392" y2="91.5725" gradientUnits="userSpaceOnUse">
<stop stop-color="white"/>
<stop offset="1" stop-opacity="0"/>
</linearGradient>
<linearGradient id="paint6_linear_120_1012" x1="236.029" y1="89.4072" x2="236.029" y2="90.9174" gradientUnits="userSpaceOnUse">
<stop stop-color="white"/>
<stop offset="1" stop-opacity="0"/>
</linearGradient>
<linearGradient id="paint7_linear_120_1012" x1="244.944" y1="88.6179" x2="244.944" y2="90.2934" gradientUnits="userSpaceOnUse">
<stop stop-color="white"/>
<stop offset="1" stop-opacity="0"/>
</linearGradient>
<linearGradient id="paint8_linear_120_1012" x1="237.088" y1="91.1467" x2="237.088" y2="92.7847" gradientUnits="userSpaceOnUse">
<stop stop-color="white"/>
<stop offset="1" stop-opacity="0"/>
</linearGradient>
<linearGradient id="paint9_linear_120_1012" x1="245.068" y1="90.6225" x2="245.068" y2="92.2605" gradientUnits="userSpaceOnUse">
<stop stop-color="white"/>
<stop offset="1" stop-opacity="0"/>
</linearGradient>
<linearGradient id="paint10_linear_120_1012" x1="224.261" y1="87.2483" x2="224.261" y2="99.7857" gradientUnits="userSpaceOnUse">
<stop stop-color="white"/>
<stop offset="1" stop-opacity="0"/>
</linearGradient>
<linearGradient id="paint11_linear_120_1012" x1="242.59" y1="96.1589" x2="242.59" y2="99.8595" gradientUnits="userSpaceOnUse">
<stop stop-color="white"/>
<stop offset="1" stop-opacity="0"/>
</linearGradient>
<linearGradient id="paint12_linear_120_1012" x1="247.389" y1="81.2204" x2="247.389" y2="102.58" gradientUnits="userSpaceOnUse">
<stop stop-color="white"/>
<stop offset="1" stop-opacity="0"/>
</linearGradient>
<linearGradient id="paint13_linear_120_1012" x1="225.053" y1="104.706" x2="225.053" y2="109.132" gradientUnits="userSpaceOnUse">
<stop stop-color="white"/>
<stop offset="1" stop-opacity="0"/>
</linearGradient>
<linearGradient id="paint14_linear_120_1012" x1="204.627" y1="105.998" x2="204.627" y2="165.181" gradientUnits="userSpaceOnUse">
<stop stop-color="white"/>
<stop offset="1" stop-opacity="0"/>
</linearGradient>
<linearGradient id="paint15_linear_120_1012" x1="227.238" y1="107.181" x2="227.238" y2="135.883" gradientUnits="userSpaceOnUse">
<stop stop-color="white"/>
<stop offset="1" stop-opacity="0"/>
</linearGradient>
<linearGradient id="paint16_linear_120_1012" x1="239.291" y1="111.13" x2="239.291" y2="121.607" gradientUnits="userSpaceOnUse">
<stop stop-color="white"/>
<stop offset="1" stop-opacity="0"/>
</linearGradient>
<linearGradient id="paint17_linear_120_1012" x1="237.182" y1="122.531" x2="237.182" y2="124.169" gradientUnits="userSpaceOnUse">
<stop stop-color="white"/>
<stop offset="1" stop-opacity="0"/>
</linearGradient>
<linearGradient id="paint18_linear_120_1012" x1="237.743" y1="127.052" x2="237.743" y2="128.69" gradientUnits="userSpaceOnUse">
<stop stop-color="white"/>
<stop offset="1" stop-opacity="0"/>
</linearGradient>
<linearGradient id="paint19_linear_120_1012" x1="238.211" y1="131.376" x2="238.211" y2="133.014" gradientUnits="userSpaceOnUse">
<stop stop-color="white"/>
<stop offset="1" stop-opacity="0"/>
</linearGradient>
<linearGradient id="paint20_linear_120_1012" x1="255.798" y1="109.605" x2="255.798" y2="130.033" gradientUnits="userSpaceOnUse">
<stop stop-color="white"/>
<stop offset="1" stop-opacity="0"/>
</linearGradient>
<linearGradient id="paint21_linear_120_1012" x1="205.481" y1="116.378" x2="205.481" y2="128.657" gradientUnits="userSpaceOnUse">
<stop stop-color="white"/>
<stop offset="1" stop-opacity="0"/>
</linearGradient>
<linearGradient id="paint22_linear_120_1012" x1="226.303" y1="151.065" x2="226.303" y2="170.589" gradientUnits="userSpaceOnUse">
<stop stop-color="white"/>
<stop offset="1" stop-opacity="0"/>
</linearGradient>
<linearGradient id="paint23_linear_120_1012" x1="218.467" y1="160.322" x2="218.467" y2="189.41" gradientUnits="userSpaceOnUse">
<stop stop-color="white"/>
<stop offset="1" stop-opacity="0"/>
</linearGradient>
<linearGradient id="paint24_linear_120_1012" x1="229.075" y1="164.156" x2="229.075" y2="174.201" gradientUnits="userSpaceOnUse">
<stop stop-color="white"/>
<stop offset="1" stop-opacity="0"/>
</linearGradient>
<linearGradient id="paint25_linear_120_1012" x1="198.125" y1="168.764" x2="198.125" y2="173.676" gradientUnits="userSpaceOnUse">
<stop stop-color="white"/>
<stop offset="1" stop-opacity="0"/>
</linearGradient>
<linearGradient id="paint26_linear_120_1012" x1="244.386" y1="169.541" x2="244.386" y2="184.218" gradientUnits="userSpaceOnUse">
<stop stop-color="white"/>
<stop offset="1" stop-opacity="0"/>
</linearGradient>
<linearGradient id="paint27_linear_120_1012" x1="250.297" y1="170.093" x2="250.297" y2="171.081" gradientUnits="userSpaceOnUse">
<stop stop-color="white"/>
<stop offset="1" stop-opacity="0"/>
</linearGradient>
<linearGradient id="paint28_linear_120_1012" x1="250.214" y1="173.767" x2="250.214" y2="174.75" gradientUnits="userSpaceOnUse">
<stop stop-color="white"/>
<stop offset="1" stop-opacity="0"/>
</linearGradient>
<linearGradient id="paint29_linear_120_1012" x1="250.136" y1="177.305" x2="250.136" y2="178.288" gradientUnits="userSpaceOnUse">
<stop stop-color="white"/>
<stop offset="1" stop-opacity="0"/>
</linearGradient>
<linearGradient id="paint30_linear_120_1012" x1="250.058" y1="181.537" x2="250.058" y2="182.503" gradientUnits="userSpaceOnUse">
<stop stop-color="white"/>
<stop offset="1" stop-opacity="0"/>
</linearGradient>
<linearGradient id="paint31_linear_120_1012" x1="239.382" y1="184.217" x2="239.382" y2="220.466" gradientUnits="userSpaceOnUse">
<stop stop-color="white"/>
<stop offset="1" stop-opacity="0"/>
</linearGradient>
<linearGradient id="paint32_linear_120_1012" x1="243.255" y1="186.984" x2="243.255" y2="188.651" gradientUnits="userSpaceOnUse">
<stop stop-color="white"/>
<stop offset="1" stop-opacity="0"/>
</linearGradient>
<linearGradient id="paint33_linear_120_1012" x1="257.937" y1="199.117" x2="257.937" y2="204.735" gradientUnits="userSpaceOnUse">
<stop stop-color="white"/>
<stop offset="1" stop-opacity="0"/>
</linearGradient>
<linearGradient id="paint34_linear_120_1012" x1="288.873" y1="129.273" x2="288.873" y2="210.983" gradientUnits="userSpaceOnUse">
<stop stop-color="white"/>
<stop offset="1" stop-opacity="0"/>
</linearGradient>
<linearGradient id="paint35_linear_120_1012" x1="283.378" y1="129.831" x2="283.378" y2="188.154" gradientUnits="userSpaceOnUse">
<stop stop-color="white"/>
<stop offset="1" stop-opacity="0"/>
</linearGradient>
<linearGradient id="paint36_linear_120_1012" x1="259.181" y1="188.541" x2="259.181" y2="327.084" gradientUnits="userSpaceOnUse">
<stop stop-color="white"/>
<stop offset="1" stop-opacity="0"/>
</linearGradient>
<linearGradient id="paint37_linear_120_1012" x1="324.55" y1="332.292" x2="324.55" y2="365.125" gradientUnits="userSpaceOnUse">
<stop stop-color="white"/>
<stop offset="1" stop-opacity="0"/>
</linearGradient>
<linearGradient id="paint38_linear_120_1012" x1="290.506" y1="326.379" x2="290.506" y2="333.843" gradientUnits="userSpaceOnUse">
<stop stop-color="white"/>
<stop offset="1" stop-opacity="0"/>
</linearGradient>
<linearGradient id="paint39_linear_120_1012" x1="312.081" y1="325.446" x2="312.081" y2="332.565" gradientUnits="userSpaceOnUse">
<stop stop-color="white"/>
<stop offset="1" stop-opacity="0"/>
</linearGradient>
<linearGradient id="paint40_linear_120_1012" x1="180.917" y1="230.984" x2="180.917" y2="296.855" gradientUnits="userSpaceOnUse">
<stop stop-color="white"/>
<stop offset="1" stop-opacity="0"/>
</linearGradient>
<linearGradient id="paint41_linear_120_1012" x1="222.473" y1="262.04" x2="222.473" y2="329.08" gradientUnits="userSpaceOnUse">
<stop stop-color="white"/>
<stop offset="1" stop-opacity="0"/>
</linearGradient>
<linearGradient id="paint42_linear_120_1012" x1="181.978" y1="294.252" x2="181.978" y2="296.873" gradientUnits="userSpaceOnUse">
<stop stop-color="white"/>
<stop offset="1" stop-opacity="0"/>
</linearGradient>
<linearGradient id="paint43_linear_120_1012" x1="222.376" y1="326.652" x2="222.376" y2="329.273" gradientUnits="userSpaceOnUse">
<stop stop-color="white"/>
<stop offset="1" stop-opacity="0"/>
</linearGradient>
<linearGradient id="paint44_linear_120_1012" x1="266.981" y1="251.231" x2="266.981" y2="282.107" gradientUnits="userSpaceOnUse">
<stop stop-color="white"/>
<stop offset="1" stop-opacity="0"/>
</linearGradient>
<linearGradient id="paint45_linear_120_1012" x1="324.649" y1="233.662" x2="324.649" y2="299.922" gradientUnits="userSpaceOnUse">
<stop stop-color="white"/>
<stop offset="1" stop-opacity="0"/>
</linearGradient>
<linearGradient id="paint46_linear_120_1012" x1="267.325" y1="279.511" x2="267.325" y2="282.131" gradientUnits="userSpaceOnUse">
<stop stop-color="white"/>
<stop offset="1" stop-opacity="0"/>
</linearGradient>
<linearGradient id="paint47_linear_120_1012" x1="324.55" y1="297.493" x2="324.55" y2="300.114" gradientUnits="userSpaceOnUse">
<stop stop-color="white"/>
<stop offset="1" stop-opacity="0"/>
</linearGradient>
<linearGradient id="paint48_linear_120_1012" x1="253.484" y1="187.879" x2="253.484" y2="188.426" gradientUnits="userSpaceOnUse">
<stop stop-color="white"/>
<stop offset="1" stop-opacity="0"/>
</linearGradient>
</defs>
</svg>
