<svg width="636" height="630" viewBox="0 0 636 630" fill="none" xmlns="http://www.w3.org/2000/svg">
<path opacity="0.07" d="M520.137 316.917C513.114 312.863 508.026 312.754 504.873 316.589C501.721 320.369 500.173 326.778 500.173 335.817V384.519C500.173 393.777 499.288 401.447 497.573 407.528C495.859 413.828 492.928 418.32 488.89 420.95C484.964 423.634 479.655 424.346 472.907 423.086C466.326 421.881 458.086 418.484 448.242 412.842L443.541 410.157V371.81L449.403 375.151C456.427 379.205 461.128 379.698 463.506 376.74C465.994 373.891 467.266 367.92 467.266 358.881V315.986C467.266 304.81 468.372 295.99 470.585 289.471C472.797 282.952 477.166 278.843 483.747 276.981C477.166 267.613 472.797 258.464 470.585 249.48C468.372 240.496 467.322 230.416 467.322 219.24V176.345C467.322 167.306 466.05 159.965 463.561 154.213C461.238 148.57 456.537 143.75 449.458 139.696L443.596 136.354V98.0061L448.297 100.69C458.141 106.333 466.382 112.304 472.963 118.659C479.71 125.069 485.019 131.917 488.946 139.093C493.038 146.379 495.914 154.158 497.628 162.43C499.343 170.483 500.228 179.194 500.228 188.397V237.099C500.228 246.138 501.776 254.356 504.929 261.697C508.081 269.092 513.169 274.79 520.193 278.789L520.137 316.917Z" fill="url(#paint0_linear_120_539)"/>
<path opacity="0.07" d="M341.781 175.852C348.805 179.906 353.893 180.016 357.045 176.181C360.197 172.401 361.746 165.991 361.746 156.952V108.25C361.746 98.9922 362.631 91.3226 364.345 85.2418C366.059 78.9418 368.88 74.3948 372.807 71.7104C376.899 69.0809 382.208 68.3687 388.79 69.5739C395.537 70.8339 403.832 74.2852 413.677 79.9278L418.377 82.6122V120.96L412.515 117.618C405.492 113.564 400.68 113.017 398.191 115.865C395.869 118.823 394.652 124.795 394.652 133.834V176.729C394.652 187.904 393.546 196.724 391.334 203.243C389.121 209.708 384.752 213.871 378.171 215.734C384.752 225.102 389.121 234.25 391.334 243.235C393.546 252.219 394.597 262.299 394.597 273.475V316.37C394.597 325.409 395.758 332.75 398.136 338.392C400.625 344.144 405.436 349.02 412.46 353.019L418.322 356.361V394.709L413.621 392.024C403.777 386.382 395.481 380.356 388.734 373.946C382.153 367.591 376.844 360.798 372.751 353.512C368.825 346.336 366.004 338.611 364.29 330.284C362.575 322.231 361.69 313.521 361.69 304.317V255.616C361.69 246.577 360.142 238.359 356.99 231.018C353.837 223.623 348.749 217.925 341.726 213.926L341.781 175.852Z" fill="url(#paint1_linear_120_539)"/>
<path opacity="0.4" d="M498.016 333.352C490.992 329.298 485.904 329.189 482.752 333.023C479.599 336.803 478.051 343.213 478.051 352.252V400.954C478.051 410.212 477.166 417.882 475.451 423.963C473.737 430.263 470.806 434.755 466.769 437.384C462.842 440.069 457.533 440.781 450.786 439.521C444.204 438.316 435.964 434.919 426.12 429.277L421.419 426.592V388.244L427.281 391.586C434.305 395.64 439.006 396.133 441.384 393.175C443.873 390.326 445.145 384.355 445.145 375.316V332.421C445.145 321.245 446.251 312.425 448.463 305.906C450.675 299.387 455.044 295.278 461.625 293.416C455.044 284.048 450.675 274.899 448.463 265.915C446.251 256.93 445.2 246.85 445.2 235.675V192.78C445.2 183.741 443.928 176.4 441.439 170.648C439.116 165.005 434.416 160.184 427.337 156.13L421.474 152.789V114.441L426.175 117.125C436.019 122.768 444.26 128.739 450.841 135.094C457.588 141.503 462.897 148.351 466.824 155.528C470.916 162.814 473.792 170.593 475.507 178.865C477.221 186.918 478.106 195.629 478.106 204.832V253.534C478.106 262.573 479.655 270.79 482.807 278.131C485.959 285.527 491.047 291.224 498.071 295.223L498.016 333.352Z" fill="url(#paint2_linear_120_539)"/>
<path opacity="0.4" d="M319.659 192.287C326.683 196.341 331.771 196.45 334.923 192.616C338.075 188.836 339.624 182.426 339.624 173.387V124.685C339.624 115.427 340.509 107.757 342.223 101.677C343.938 95.3765 346.758 90.8296 350.685 88.1452C354.777 85.5157 360.087 84.8035 366.668 86.0087C373.415 87.2687 381.711 90.72 391.555 96.3626L396.256 99.047V137.395L390.393 134.053C383.37 129.999 378.558 129.451 376.07 132.3C373.747 135.258 372.53 141.23 372.53 150.269V193.163C372.53 204.339 371.424 213.159 369.212 219.678C367 226.143 362.631 230.306 356.049 232.169C362.631 241.537 367 250.685 369.212 259.67C371.424 268.654 372.475 278.734 372.475 289.91V332.804C372.475 341.843 373.636 349.184 376.014 354.827C378.503 360.579 383.314 365.455 390.338 369.454L396.2 372.796V411.143L391.499 408.459C381.655 402.817 373.36 396.79 366.613 390.381C360.031 384.026 354.722 377.233 350.63 369.947C346.703 362.77 343.882 355.046 342.168 346.719C340.454 338.666 339.569 329.956 339.569 320.752V272.05C339.569 263.011 338.02 254.794 334.868 247.453C331.715 240.057 326.627 234.36 319.604 230.361L319.659 192.287Z" fill="url(#paint3_linear_120_539)"/>
<path opacity="0.15" d="M196.883 75.7096L291.399 129.78L291.343 354.005L196.828 299.935L196.883 75.7096Z" fill="url(#paint4_linear_120_539)"/>
<path fill-rule="evenodd" clip-rule="evenodd" d="M179.131 110.168L254.289 153.172V173.825L179.131 130.821V110.168Z" fill="#708AF4"/>
<path opacity="0.15" d="M208.553 199.792L280.78 241.098V273.201L208.553 231.895V199.792Z" fill="white"/>
<path opacity="0.15" d="M208.497 160.951L280.835 202.312V209.763L208.497 168.457V160.951Z" fill="white"/>
<path opacity="0.15" d="M208.497 175.523L271.047 211.297V218.747L208.497 182.974V175.523Z" fill="white"/>
<path opacity="0.2" d="M196.883 75.7096L291.399 129.78V159.856L196.883 105.785V75.7096Z" fill="url(#paint5_linear_120_539)"/>
<path opacity="0.2" d="M220.498 104.416C220.498 108.963 217.789 111.099 214.47 109.237C211.152 107.319 208.497 102.115 208.497 97.5678C208.497 93.0209 211.207 90.8844 214.526 92.747C217.789 94.6644 220.498 99.8687 220.498 104.416Z" fill="white"/>
<path opacity="0.15" d="M313.023 283.61L407.538 337.68L407.482 561.905L312.967 507.835L313.023 283.61Z" fill="url(#paint6_linear_120_539)"/>
<path fill-rule="evenodd" clip-rule="evenodd" d="M349.026 348.856L424.184 391.805V412.403L348.97 369.454L349.026 348.856Z" fill="#F8F8FF"/>
<path opacity="0.15" d="M324.692 370.166L396.975 411.527V443.575L324.692 402.214V370.166Z" fill="white"/>
<path opacity="0.15" d="M324.581 415.964L396.919 457.325V464.776L324.581 423.47V415.964Z" fill="white"/>
<path opacity="0.15" d="M324.581 429.441L387.13 465.214V472.664L324.581 436.891V429.441Z" fill="white"/>
<path opacity="0.2" d="M313.023 283.61L407.538 337.68V367.756L313.023 313.685V283.61Z" fill="url(#paint7_linear_120_539)"/>
<path opacity="0.2" d="M336.638 312.37C336.638 316.917 333.928 319.054 330.609 317.191C327.291 315.274 324.637 310.07 324.637 305.523C324.637 300.976 327.346 298.839 330.665 300.702C333.928 302.564 336.638 307.823 336.638 312.37Z" fill="white"/>
<path opacity="0.3" d="M296.653 314.671L132.122 220.61L132.177 305.577L282.218 391.367L296.763 412.677L296.653 314.671Z" fill="url(#paint8_linear_120_539)"/>
<path opacity="0.15" d="M254.345 311.165L218.286 290.567V298.017L254.345 318.616V311.165Z" fill="white"/>
<path opacity="0.15" d="M254.345 326.121L165.083 275.063V282.514L254.4 333.571L254.345 326.121Z" fill="white"/>
<path opacity="0.15" d="M254.4 341.076L146.612 279.446V286.896L254.4 348.527V341.076Z" fill="white"/>
<path fill-rule="evenodd" clip-rule="evenodd" d="M263.249 324.039C263.249 331.051 267.452 339.104 272.595 342.063C277.738 345.021 281.942 341.734 281.942 334.722C281.942 327.71 277.738 319.657 272.595 316.698C267.396 313.74 263.249 317.027 263.249 324.039Z" fill="#F8F8FF"/>
<path opacity="0.15" d="M148.382 160.951L126.592 148.461V141.175L148.382 153.665C150.151 154.706 152.751 156.733 154.963 159.91C157.341 163.307 159.055 167.58 159.055 172.237C159.055 177.386 157.728 180.29 155.239 181.166C152.861 181.933 150.096 180.618 148.382 179.632L139.422 174.483L139.367 174.428C138.593 173.99 137.376 173.551 136.436 173.825C135.662 174.044 134.721 174.866 134.721 177.715C134.721 180.563 135.606 182.317 136.381 183.357C137.321 184.672 138.537 185.603 139.312 185.987L139.422 186.042L166.853 201.71V208.996L139.588 193.383C137.708 192.397 134.998 190.37 132.675 187.137C130.131 183.577 128.361 179.084 128.361 174.044C128.361 169.059 130.131 166.484 132.62 165.772C134.943 165.115 137.653 166.101 139.533 167.197L148.437 172.291C149.709 173.003 150.704 173.332 151.313 173.113C151.81 172.949 152.695 172.237 152.695 168.566C152.695 166.156 151.921 164.622 151.147 163.526C150.262 162.321 149.101 161.335 148.382 160.951Z" fill="white"/>
<path fill-rule="evenodd" clip-rule="evenodd" d="M133.062 149.228C133.062 155.473 129.357 158.377 124.822 155.802C120.287 153.227 116.582 146.05 116.582 139.805C116.582 133.56 120.287 130.657 124.822 133.231C129.357 135.861 133.062 143.037 133.062 149.228Z" fill="#708AF4"/>
<path fill-rule="evenodd" clip-rule="evenodd" d="M176.753 209.489C176.753 215.734 173.047 218.637 168.512 216.063C163.977 213.488 160.272 206.311 160.272 200.066C160.272 193.821 163.977 190.917 168.512 193.492C173.047 196.122 176.753 203.298 176.753 209.489Z" fill="#708AF4"/>
<path opacity="0.2" d="M235.541 399.968C238.859 401.885 241.514 406.432 241.514 410.267V426.976L252.686 433.33C256.004 435.248 258.658 439.795 258.658 443.63C258.658 447.41 255.949 448.943 252.686 447.081L241.514 440.726V457.435C241.514 461.215 238.804 462.749 235.541 460.886C232.223 458.969 229.568 454.422 229.568 450.587V433.878L218.397 427.524C215.079 425.606 212.424 421.059 212.424 417.224C212.424 413.444 215.134 411.91 218.397 413.773L229.568 420.128V403.419C229.568 399.584 232.223 398.05 235.541 399.968Z" fill="url(#paint9_linear_120_539)"/>
<defs>
<linearGradient id="paint0_linear_120_539" x1="4673.18" y1="1204.83" x2="-5599.59" y2="19178.6" gradientUnits="userSpaceOnUse">
<stop stop-color="white"/>
<stop offset="1" stop-color="white" stop-opacity="0"/>
</linearGradient>
<linearGradient id="paint1_linear_120_539" x1="4768.22" y1="226.185" x2="-5502.73" y2="18196.8" gradientUnits="userSpaceOnUse">
<stop stop-color="white"/>
<stop offset="1" stop-color="white" stop-opacity="0"/>
</linearGradient>
<linearGradient id="paint2_linear_120_539" x1="4651.06" y1="1221.26" x2="-5621.71" y2="19195.1" gradientUnits="userSpaceOnUse">
<stop stop-color="white"/>
<stop offset="1" stop-color="white" stop-opacity="0"/>
</linearGradient>
<linearGradient id="paint3_linear_120_539" x1="4746.1" y1="242.62" x2="-5524.84" y2="18213.3" gradientUnits="userSpaceOnUse">
<stop stop-color="white"/>
<stop offset="1" stop-color="white" stop-opacity="0"/>
</linearGradient>
<linearGradient id="paint4_linear_120_539" x1="5480.74" y1="5578.59" x2="-1448.44" y2="17697.8" gradientUnits="userSpaceOnUse">
<stop stop-color="white"/>
<stop offset="1" stop-color="white" stop-opacity="0"/>
</linearGradient>
<linearGradient id="paint5_linear_120_539" x1="3440.82" y1="921.074" x2="5785.72" y2="7633.1" gradientUnits="userSpaceOnUse">
<stop stop-color="white"/>
<stop offset="1" stop-color="white" stop-opacity="0"/>
</linearGradient>
<linearGradient id="paint6_linear_120_539" x1="5596.88" y1="5786.49" x2="-1332.29" y2="17905.7" gradientUnits="userSpaceOnUse">
<stop stop-color="white"/>
<stop offset="1" stop-color="white" stop-opacity="0"/>
</linearGradient>
<linearGradient id="paint7_linear_120_539" x1="3557.35" y1="1129.86" x2="5902.24" y2="7841.87" gradientUnits="userSpaceOnUse">
<stop stop-color="white"/>
<stop offset="1" stop-color="white" stop-opacity="0"/>
</linearGradient>
<linearGradient id="paint8_linear_120_539" x1="11706.3" y1="6228.89" x2="4729.24" y2="11743.7" gradientUnits="userSpaceOnUse">
<stop stop-color="white"/>
<stop offset="1" stop-color="white" stop-opacity="0"/>
</linearGradient>
<linearGradient id="paint9_linear_120_539" x1="3144.84" y1="2620.75" x2="1091.44" y2="4255.66" gradientUnits="userSpaceOnUse">
<stop stop-color="white"/>
<stop offset="1" stop-color="white" stop-opacity="0"/>
</linearGradient>
</defs>
</svg>
