<svg width="48" height="48" viewBox="0 0 48 48" fill="none" xmlns="http://www.w3.org/2000/svg">
<path d="M3.28503 0.375L7.05566 42.7061L23.9749 47.4236L40.9414 42.6889L44.715 0.375H3.28503ZM36.8817 10.0732L35.6265 24.1751L35.6303 24.2512L35.625 24.4264V24.4249L34.7333 34.2851L34.635 35.1611L24 38.1026L23.9918 38.1101L13.3752 35.1521L12.6563 27H17.8624L18.2318 31.1452L24.0015 32.709L24 32.712V32.7112L29.7912 31.1254L30.4032 24.375H18.297L18.1932 23.2339L17.9565 20.5605L17.8324 19.125H30.8633L31.3373 13.875H11.49L11.3862 12.7346L11.1499 10.0605L11.0254 8.625H37.0058L36.8817 10.0732Z" fill="url(#paint0_linear_134_1172)"/>
<defs>
<linearGradient id="paint0_linear_134_1172" x1="24" y1="0.375" x2="24" y2="47.4236" gradientUnits="userSpaceOnUse">
<stop stop-color="#F8F8FF"/>
<stop offset="0.0001" stop-color="#020627"/>
<stop offset="1" stop-color="#1D4FB0"/>
</linearGradient>
</defs>
</svg>
