<svg width="48" height="48" viewBox="0 0 48 48" fill="none" xmlns="http://www.w3.org/2000/svg">
<g clip-path="url(#clip0_134_1206)">
<path d="M47.094 21.8624L26.1375 0.905946C25.8505 0.618852 25.5098 0.391107 25.1348 0.235725C24.7598 0.0803421 24.3579 0.000366211 23.952 0.000366211C23.5461 0.000366211 23.1442 0.0803421 22.7692 0.235725C22.3942 0.391107 22.0535 0.618852 21.7665 0.905946L17.4165 5.25595L22.9365 10.7759C24.2205 10.3259 25.6905 10.6334 26.7135 11.6564C27.2005 12.1443 27.5404 12.7593 27.6945 13.4311C27.8486 14.103 27.8107 14.8046 27.585 15.4559L32.9055 20.7764C34.1925 20.3324 35.6775 20.6189 36.705 21.6494C37.0466 21.9911 37.3175 22.3967 37.5023 22.8431C37.6871 23.2895 37.7822 23.7679 37.7822 24.251C37.7821 24.7341 37.6869 25.2125 37.5019 25.6588C37.317 26.1051 37.0459 26.5106 36.7042 26.8522C36.3626 27.1938 35.957 27.4647 35.5106 27.6495C35.0642 27.8343 34.5858 27.9294 34.1027 27.9293C33.6196 27.9293 33.1412 27.834 32.6949 27.6491C32.2486 27.4642 31.8431 27.1931 31.5015 26.8514C30.4215 25.7714 30.1545 24.1814 30.7005 22.8509L25.7385 17.8889V30.9464C26.0987 31.1247 26.4279 31.3597 26.7135 31.6424C27.0551 31.984 27.326 32.3895 27.5109 32.8358C27.6957 33.2821 27.7909 33.7604 27.7909 34.2434C27.7909 34.7265 27.6957 35.2048 27.5109 35.6511C27.326 36.0974 27.0551 36.5029 26.7135 36.8444C26.3719 37.186 25.9664 37.457 25.5202 37.6418C25.0739 37.8267 24.5956 37.9218 24.1125 37.9218C23.6295 37.9218 23.1511 37.8267 22.7048 37.6418C22.2586 37.457 21.8531 37.186 21.5115 36.8444C21.1695 36.5031 20.8982 36.0977 20.7131 35.6514C20.528 35.2051 20.4327 34.7266 20.4327 34.2434C20.4327 33.7603 20.528 33.2818 20.7131 32.8355C20.8982 32.3892 21.1695 31.9838 21.5115 31.6424C21.867 31.2884 22.2615 31.0199 22.716 30.8399V17.6609C22.278 17.4809 21.867 17.2154 21.5115 16.8584C20.995 16.3426 20.6438 15.6846 20.5028 14.9684C20.3617 14.2521 20.4372 13.5101 20.7195 12.8369L15.2745 7.39495L0.9045 21.7499C0.61718 22.0369 0.389246 22.3777 0.233731 22.7529C0.0782152 23.128 -0.00183105 23.5301 -0.00183105 23.9362C-0.00183105 24.3423 0.0782152 24.7444 0.233731 25.1195C0.389246 25.4947 0.61718 25.8355 0.9045 26.1224L21.8625 47.0774C22.1495 47.3645 22.4902 47.5923 22.8652 47.7477C23.2402 47.903 23.6421 47.983 24.048 47.983C24.4539 47.983 24.8558 47.903 25.2308 47.7477C25.6058 47.5923 25.9465 47.3645 26.2335 47.0774L47.094 26.2499C47.3813 25.963 47.6093 25.6222 47.7648 25.247C47.9203 24.8719 48.0003 24.4698 48.0003 24.0637C48.0003 23.6576 47.9203 23.2555 47.7648 22.8804C47.6093 22.5052 47.3813 22.1644 47.094 21.8774" fill="url(#paint0_linear_134_1206)"/>
</g>
<defs>
<linearGradient id="paint0_linear_134_1206" x1="23.9993" y1="0.000366211" x2="23.9993" y2="47.983" gradientUnits="userSpaceOnUse">
<stop stop-color="#F8F8FF"/>
<stop offset="0.0001" stop-color="#020627"/>
<stop offset="1" stop-color="#1D4FB0"/>
</linearGradient>
<clipPath id="clip0_134_1206">
<rect width="48" height="48" fill="white"/>
</clipPath>
</defs>
</svg>
