<svg width="36" height="36" viewBox="0 0 36 36" fill="none" xmlns="http://www.w3.org/2000/svg">
<path fill-rule="evenodd" clip-rule="evenodd" d="M18 0C8.05664 0 0 8.05664 0 18C0 25.9512 5.15625 32.7012 12.3105 35.0801C13.2129 35.2441 13.541 34.6934 13.541 34.2129C13.541 33.7852 13.5234 32.6543 13.5176 31.1543C8.50781 32.2383 7.45312 28.7402 7.45312 28.7402C6.63281 26.6602 5.45508 26.1035 5.45508 26.1035C3.82031 24.9902 5.57812 25.0137 5.57812 25.0137C7.38281 25.1426 8.33203 26.8652 8.33203 26.8652C9.9375 29.6191 12.5449 28.8223 13.5703 28.3652C13.7344 27.1992 14.2031 26.4082 14.7129 25.957C10.7168 25.5059 6.51562 23.959 6.51562 17.0625C6.51562 15.0938 7.21875 13.4883 8.36719 12.2285C8.18555 11.7773 7.56445 9.94336 8.54297 7.46485C8.54297 7.46485 10.0547 6.98438 13.4941 9.31055C14.9297 8.91211 16.4707 8.71289 18 8.70703C19.5293 8.71289 21.0703 8.91211 22.5059 9.31055C25.9453 6.98438 27.4512 7.46485 27.4512 7.46485C28.4355 9.94336 27.8203 11.7773 27.6328 12.2285C28.7871 13.4883 29.4785 15.0938 29.4785 17.0625C29.4785 23.9766 25.2715 25.4941 21.2637 25.9453C21.9082 26.4961 22.4824 27.5977 22.4824 29.2734C22.4824 31.6816 22.4648 33.6211 22.4648 34.2129C22.4648 34.6934 22.7871 35.2559 23.7012 35.0801C30.8496 32.6953 36 25.9512 36 18C36 8.05664 27.9434 0 18 0Z" fill="url(#paint0_linear_31_3062)"/>
<defs>
<linearGradient id="paint0_linear_31_3062" x1="18" y1="0" x2="18" y2="35.113" gradientUnits="userSpaceOnUse">
<stop stop-color="#F8F8FF"/>
<stop offset="0.0001" stop-color="#020627"/>
<stop offset="1" stop-color="#1D4FB0"/>
</linearGradient>
</defs>
</svg>
