<svg width="48" height="48" viewBox="0 0 48 48" fill="none" xmlns="http://www.w3.org/2000/svg">
<path d="M3 3H45V45H3V3ZM14.0367 38.0933C14.97 40.0767 16.8133 41.71 19.9633 41.71C23.4633 41.71 25.8667 39.8433 25.8667 35.76V22.2733H21.9V35.6667C21.9 37.6733 21.0833 38.1867 19.8 38.1867C18.4467 38.1867 17.8867 37.2533 17.2567 36.1567L14.0367 38.0933ZM27.99 37.6733C29.1567 39.96 31.5133 41.71 35.2 41.71C38.9333 41.71 41.7333 39.7733 41.7333 36.2033C41.7333 32.9133 39.8433 31.4433 36.4833 29.9967L35.5033 29.5767C33.8 28.8533 33.0767 28.3633 33.0767 27.1967C33.0767 26.24 33.8 25.4933 34.9667 25.4933C36.0867 25.4933 36.8333 25.9833 37.51 27.1967L40.5667 25.1667C39.2833 22.9267 37.4633 22.0633 34.9667 22.0633C31.4433 22.0633 29.18 24.3033 29.18 27.2667C29.18 30.4867 31.07 32.0033 33.9167 33.2167L34.8967 33.6367C36.7167 34.43 37.79 34.92 37.79 36.2733C37.79 37.3933 36.74 38.21 35.1067 38.21C33.17 38.21 32.05 37.2067 31.21 35.8067L27.99 37.6733Z" fill="url(#paint0_linear_134_1178)"/>
<defs>
<linearGradient id="paint0_linear_134_1178" x1="24" y1="3" x2="24" y2="45" gradientUnits="userSpaceOnUse">
<stop stop-color="#F8F8FF"/>
<stop offset="0.0001" stop-color="#020627"/>
<stop offset="1" stop-color="#1D4FB0"/>
</linearGradient>
</defs>
</svg>
