<svg width="42" height="42" viewBox="0 0 42 42" fill="none" xmlns="http://www.w3.org/2000/svg">
<path d="M36.36 0.840088H5.64C2.9904 0.840088 0.839996 2.99049 0.839996 5.64009V36.3601C0.839996 39.0097 2.9904 41.1601 5.64 41.1601H36.36C39.0096 41.1601 41.16 39.0097 41.16 36.3601V5.64009C41.16 2.99049 39.0096 0.840088 36.36 0.840088ZM13.32 16.2001V34.4401H7.56V16.2001H13.32ZM7.56 10.8913C7.56 9.54729 8.712 8.52009 10.44 8.52009C12.168 8.52009 13.2528 9.54729 13.32 10.8913C13.32 12.2353 12.2448 13.3201 10.44 13.3201C8.712 13.3201 7.56 12.2353 7.56 10.8913ZM34.44 34.4401H28.68C28.68 34.4401 28.68 25.5505 28.68 24.8401C28.68 22.9201 27.72 21.0001 25.32 20.9617H25.2432C22.92 20.9617 21.96 22.9393 21.96 24.8401C21.96 25.7137 21.96 34.4401 21.96 34.4401H16.2V16.2001H21.96V18.6577C21.96 18.6577 23.8128 16.2001 27.5376 16.2001C31.3488 16.2001 34.44 18.8209 34.44 24.1297V34.4401Z" fill="url(#paint0_linear_31_3068)"/>
<defs>
<linearGradient id="paint0_linear_31_3068" x1="21" y1="0.840088" x2="21" y2="41.1601" gradientUnits="userSpaceOnUse">
<stop stop-color="#F8F8FF"/>
<stop offset="0.0001" stop-color="#020627"/>
<stop offset="1" stop-color="#1D4FB0"/>
</linearGradient>
</defs>
</svg>
