<svg width="48" height="48" viewBox="0 0 48 48" fill="none" xmlns="http://www.w3.org/2000/svg">
<g clip-path="url(#clip0_134_1209)">
<path d="M21.0107 11.5875C20.9893 11.4563 21.2143 11.3719 21.3536 11.3157C21.5357 11.25 21.7714 11.2219 21.9429 11.3063C21.9857 11.325 22.0286 11.3719 22.0071 11.4094C21.9643 11.5219 21.75 11.5032 21.6321 11.5594C21.525 11.6063 21.4393 11.7188 21.3107 11.7188C21.2036 11.7282 21.0214 11.6813 21.0107 11.5875ZM23.6571 11.5594C23.7643 11.6063 23.85 11.7188 23.9786 11.7188C24.0964 11.7188 24.2786 11.6813 24.2893 11.5782C24.3107 11.4469 24.0857 11.3625 23.9464 11.3063C23.7643 11.2407 23.5286 11.2125 23.3571 11.2969C23.3143 11.3157 23.2714 11.3625 23.2929 11.4C23.325 11.5219 23.5393 11.5032 23.6571 11.5594ZM46.6607 40.6407C46.6071 41.4094 45.9643 41.9344 45.1714 42.3563C43.575 43.2 41.175 43.8375 39.7179 45.375C38.1964 46.9594 36.3214 47.8688 34.5429 47.9907C32.775 48.1125 31.1143 47.4 30.225 45.8344V45.825C30.1071 45.6281 30.0214 45.4125 29.9571 45.1969C27.6536 45.3094 25.65 44.7 24.0536 44.8125C21.6964 44.925 20.2179 45.4219 18.8786 45.4313C18.3643 46.425 17.3464 47.0813 16.1036 47.325C14.3893 47.6719 12.2357 47.325 10.1143 46.35C8.13214 45.4313 5.61428 45.5157 3.76071 45.1782C2.82857 45.0094 2.01428 44.7094 1.60714 44.025C1.21071 43.3407 1.28571 42.4032 1.84285 41.0532C2.025 40.575 1.88571 39.8625 1.75714 39.1032C1.69285 38.7375 1.62857 38.3625 1.62857 37.9969C1.62857 37.5938 1.70357 37.2 1.92857 36.8344C2.41071 36.0375 3.19285 35.7 3.91071 35.475C4.62857 35.25 5.28214 35.1 5.73214 34.6969C6.28928 34.1813 6.81428 33.3469 7.51071 32.8032C7.23214 31.1907 7.53214 29.4844 8.175 27.8063C9.525 24.2532 12.375 20.85 14.4 18.7407C16.125 16.5938 16.6286 14.8688 16.8107 12.675C16.9286 9.69378 14.1857 -0.0187229 25.1571 2.71101e-05C33.825 0.00940211 33.3321 8.00628 33.2786 12.3094C33.2464 15.1313 35.025 17.0438 36.8571 19.0594C38.4857 20.7469 40.6179 23.2125 41.8393 26.0344C42.8357 28.3407 43.2214 30.8906 42.2357 33.45C42.3857 33.4969 42.5357 33.5625 42.675 33.6375C42.825 33.7125 42.9643 33.8063 43.1036 33.9094C43.8107 34.4344 44.0357 35.25 44.2286 36.0094C44.4321 36.7688 44.6143 37.4813 45 37.8563C46.1893 39.0188 46.7036 39.8719 46.6607 40.6407ZM23.6571 10.2282C24.0429 10.3125 24.6107 10.4532 25.05 10.6407C24.825 9.4969 25.5321 8.43753 26.3143 8.4844C27.2679 8.51253 27.8036 9.93753 27.2893 11.0438C27.2036 11.2219 26.9893 11.3625 26.8714 11.475C27.5893 11.6907 28.05 11.8594 28.2214 11.9344C29.0679 11.0438 29.3786 9.47815 28.6821 8.1469C27.6321 6.14065 25.0179 6.10315 23.9679 8.1844C23.625 8.8594 23.55 9.58128 23.6571 10.2282ZM18.7071 11.9907C19.5429 11.4563 19.4464 11.55 19.3393 11.475C18.4821 10.8282 18.6321 8.90628 19.5321 8.84065C20.2071 8.79378 20.6893 9.84378 20.5607 10.6782C20.8929 10.4813 21.2786 10.3407 21.6536 10.2469C21.8357 8.43753 20.6893 7.10628 19.6071 7.10628C17.5821 7.10628 17.0357 10.6219 18.7071 11.9907ZM17.7 13.95C17.8607 14.4094 18.3536 14.9344 19.275 15.3844C20.1107 15.8157 20.5607 16.4625 21.4179 16.7907C21.6964 16.8938 22.0286 16.9688 22.4464 16.9875C24.4179 17.0907 25.35 15.9282 26.5393 15.5907C27.7929 15.2438 28.6929 14.5594 28.9714 13.8938C29.3143 13.0969 28.7464 12.5157 27.8464 12.1875C26.6357 11.7282 26.1 11.7 25.425 11.3157C24.3214 10.6969 23.4107 10.4813 22.65 10.4813C21.1071 10.4813 20.1643 11.4 19.6607 11.8125C19.6071 11.8594 18.8143 12.3657 18.15 12.7969C17.7 13.1063 17.55 13.4907 17.7 13.95ZM14.1107 37.65L12.0107 34.3125C11.2821 33.45 10.5321 32.925 9.66428 32.8125C8.83928 32.7 8.31428 32.9438 7.76785 33.4594C7.25357 33.9375 6.825 34.6125 6.23571 35.1469C5.4 35.7563 5.23928 35.7281 4.13571 36.075C3.46071 36.2813 2.925 36.5063 2.55 37.1344C2.26071 37.6032 2.325 38.2782 2.45357 39.0094C2.58214 39.75 2.775 40.5375 2.51785 41.25V41.2688C1.98214 42.5532 1.98214 43.3032 2.23928 43.7438C3.08571 45.1875 7.23214 44.3157 10.4357 45.7969C13.8 47.3344 18.2143 47.4 18.5036 44.1094C18.7286 42.1875 15.1286 39.5157 14.1107 37.65ZM30.6 41.0063C30.9429 39.975 31.275 39.0094 31.3286 38.2875C31.4143 36.8625 31.5 35.5969 31.8 34.5469C32.1321 33.3657 32.7964 32.3813 34.0929 31.9875C34.3393 30.0094 36.0964 30.0094 38.1964 30.8157C40.2214 31.6125 40.9821 32.3156 40.6393 33.2625C40.7464 33.2625 40.8536 33.2531 41.0893 33.2625C41.6464 31.6781 39.5571 30.6375 37.8 30C38.1107 28.875 38.0571 27.7406 37.7571 26.6531C37.1143 24.2813 35.3357 22.1719 33.9857 21.1219C33.7393 21.1125 33.7607 21.3 34.2643 21.7313C35.5071 22.7344 38.2393 26.3438 36.7607 29.6907C36.3429 29.5969 35.9464 29.55 35.5929 29.5594C35.025 26.8313 33.7179 24.5719 33.0643 23.5032C31.8321 21.4969 29.9036 17.3813 29.0786 14.5313C28.5964 15.1313 27.75 15.6469 26.6893 15.9375C26.1857 16.0782 25.65 16.4532 24.9857 16.7813C23.4964 17.5313 21.7714 17.6063 20.4429 16.6688C19.9607 16.3313 19.5857 15.9563 19.0929 15.7032C18.9214 15.6188 18.5464 15.3938 18.4286 15.3188C18.2143 18.8625 15.5036 23.3157 14.2179 25.8844C13.3286 27.7313 12.8036 29.7094 12.7393 31.65C10.4036 28.9219 12.1071 25.4344 13.0179 23.925C14.0357 22.275 14.1964 21.8157 13.95 21.975C13.0286 23.2875 11.5929 25.3782 11.0357 27.525C10.7464 28.6407 10.6929 29.775 11.0679 30.825C11.4429 31.875 12.2571 32.8407 13.7036 33.6282C13.7036 33.6282 16.3607 34.9688 17.8071 36.675C18.6 37.6125 18.8464 38.4282 18.6 39.0094C18.3321 39.6375 17.5714 39.8438 16.8107 39.8438C17.325 40.4063 17.9143 41.0625 18.3536 41.6813C22.3821 44.0907 27.1607 43.1532 30.6 41.0063ZM44.4643 38.2969C43.3929 37.2375 43.6929 35.1938 42.6321 34.3969C41.8929 33.8344 41.175 33.8906 40.2107 33.9188C39.3857 34.7438 37.4464 35.7563 36.0964 35.4469C34.8643 35.175 34.1679 33.9188 34.0821 32.6813C34.05 32.7 34.0071 32.7094 33.975 32.7282C33.2143 33.0938 32.7857 33.7407 32.5071 34.7063C32.2393 35.6625 32.1429 36.9094 32.0571 38.3344C31.9821 39.4407 31.3929 40.8094 30.9964 42.1407C30.6214 43.3782 30.375 44.5031 30.8786 45.5438C31.65 46.9031 32.9679 47.4563 34.4893 47.3532C36.0107 47.25 37.7464 46.4344 39.1607 44.9625C41.5179 42.4688 45.8357 42.1782 45.9321 40.6032C45.9643 40.125 45.6 39.3844 44.4643 38.2969ZM18.5679 13.9407C18.7821 14.1188 19.0714 14.3625 19.425 14.6063C20.1321 15.0938 21.1179 15.6 22.35 15.6C23.5929 15.6 24.7607 15.0469 25.7571 14.5875C26.2821 14.3438 26.925 13.9313 27.3429 13.6125C27.7607 13.2938 27.975 13.0219 27.675 12.9938C27.375 12.9657 27.3964 13.2375 27.0321 13.4719C26.5607 13.7719 25.9929 14.1657 25.5429 14.3907C24.75 14.7844 23.4536 15.3469 22.3393 15.3469C21.225 15.3469 20.3357 14.8969 19.6714 14.4375C19.3393 14.2032 19.0607 13.9688 18.8464 13.7907C18.6857 13.6594 18.6429 13.3594 18.3857 13.3313C18.2357 13.3219 18.1929 13.6782 18.5679 13.9407Z" fill="url(#paint0_linear_134_1209)"/>
</g>
<defs>
<linearGradient id="paint0_linear_134_1209" x1="24.0105" y1="0" x2="24.0105" y2="48.004" gradientUnits="userSpaceOnUse">
<stop stop-color="#F8F8FF"/>
<stop offset="0.0001" stop-color="#020627"/>
<stop offset="1" stop-color="#1D4FB0"/>
</linearGradient>
<clipPath id="clip0_134_1209">
<rect width="48" height="48" fill="white"/>
</clipPath>
</defs>
</svg>
