<svg width="40" height="30" viewBox="0 0 40 30" fill="none" xmlns="http://www.w3.org/2000/svg">
<path d="M5 0.546875C4.53711 0.546875 4.10352 0.634766 3.6875 0.763671L8.0586 3.54688H31.9414L36.3125 0.763671C35.8965 0.634766 35.4629 0.546875 35 0.546875H5ZM2.16992 1.57812C1.15625 2.4043 0.5 3.64648 0.5 5.04688V24.5469C0.5 27.0254 2.52148 29.0469 5 29.0469H35C37.4785 29.0469 39.5 27.0254 39.5 24.5469V5.04688C39.5 3.64648 38.8437 2.4043 37.8301 1.57812L20 12.9219L2.16992 1.57812ZM5 8.66797L20 18.2188L35 8.66797V26.0469H5V8.66797Z" fill="url(#paint0_linear_31_3066)"/>
<defs>
<linearGradient id="paint0_linear_31_3066" x1="20" y1="0.546875" x2="20" y2="29.0469" gradientUnits="userSpaceOnUse">
<stop stop-color="#F8F8FF"/>
<stop offset="0.0001" stop-color="#020627"/>
<stop offset="1" stop-color="#1D4FB0"/>
</linearGradient>
</defs>
</svg>
