<svg width="48" height="48" viewBox="0 0 48 48" fill="none" xmlns="http://www.w3.org/2000/svg">
<g clip-path="url(#clip0_134_1200)">
<path d="M0 26.0819V0L18 13.0409V21.7349L6 13.0409V30.4289L0 26.0819Z" fill="url(#paint0_linear_134_1200)"/>
<path d="M18 13.0409L36 0V26.0819L24 34.7758L18 30.4289L30 21.7349V13.0409L18 21.7349V13.0409Z" fill="url(#paint1_linear_134_1200)"/>
<path d="M18 30.4288V39.1228L30 47.8168V39.1228L18 30.4288Z" fill="url(#paint2_linear_134_1200)"/>
<path d="M30 47.8168L48 34.7758V17.3879L42 21.7349V30.4289L30 39.1228V47.8168ZM42 13.0409V4.34698L48 0V8.69396L42 13.0409Z" fill="url(#paint3_linear_134_1200)"/>
</g>
<defs>
<linearGradient id="paint0_linear_134_1200" x1="9" y1="0" x2="9" y2="30.4289" gradientUnits="userSpaceOnUse">
<stop stop-color="#F8F8FF"/>
<stop offset="0.0001" stop-color="#020627"/>
<stop offset="1" stop-color="#1D4FB0"/>
</linearGradient>
<linearGradient id="paint1_linear_134_1200" x1="27" y1="0" x2="27" y2="34.7758" gradientUnits="userSpaceOnUse">
<stop stop-color="#F8F8FF"/>
<stop offset="0.0001" stop-color="#020627"/>
<stop offset="1" stop-color="#1D4FB0"/>
</linearGradient>
<linearGradient id="paint2_linear_134_1200" x1="24" y1="30.4288" x2="24" y2="47.8168" gradientUnits="userSpaceOnUse">
<stop stop-color="#F8F8FF"/>
<stop offset="0.0001" stop-color="#020627"/>
<stop offset="1" stop-color="#1D4FB0"/>
</linearGradient>
<linearGradient id="paint3_linear_134_1200" x1="39" y1="0" x2="39" y2="47.8168" gradientUnits="userSpaceOnUse">
<stop stop-color="#F8F8FF"/>
<stop offset="0.0001" stop-color="#020627"/>
<stop offset="1" stop-color="#1D4FB0"/>
</linearGradient>
<clipPath id="clip0_134_1200">
<rect width="48" height="48" fill="white"/>
</clipPath>
</defs>
</svg>
