<svg width="48" height="48" viewBox="0 0 48 48" fill="none" xmlns="http://www.w3.org/2000/svg">
<path d="M0.750375 33.9217H2.29088V27.8381L4.67587 33.1417C4.95712 33.7837 5.34225 34.0106 6.09787 34.0106C6.8535 34.0106 7.224 33.7837 7.50525 33.1417L9.89025 27.8381V33.9217H11.4308V27.8482C11.4308 27.2557 11.1937 26.9689 10.7047 26.8211C9.53437 26.4559 8.74912 26.772 8.39362 27.5621L6.05325 32.7964L3.78712 27.5617C3.44625 26.772 2.64638 26.4559 1.476 26.8207C0.987 26.9689 0.75 27.2554 0.75 27.8479L0.750375 33.9217ZM12.7121 28.9695H14.2523V32.3212C14.238 32.5031 14.3107 32.9306 15.1545 32.9441C15.585 32.9508 18.4778 32.9441 18.5048 32.9441V28.953H20.0486C20.0558 28.953 20.0471 34.3957 20.0471 34.4182C20.0554 35.7607 18.3817 36.0521 17.61 36.0746H12.7455V35.0381C12.7537 35.0381 17.6066 35.0392 17.6186 35.0377C18.6105 34.9331 18.4931 34.4404 18.4927 34.2746V33.8703H15.2186C13.6954 33.8565 12.7249 33.1916 12.7125 32.4266C12.7118 32.3565 12.7459 29.0032 12.7121 28.9695ZM21.2363 33.9217H25.6658C26.1844 33.9217 26.6884 33.8133 27.0881 33.6258C27.7545 33.3198 28.0804 32.9051 28.0804 32.3613V31.2356C28.0804 30.7912 27.7103 30.3761 26.9843 30.1001C26.5991 29.9516 26.1248 29.8732 25.6654 29.8732H23.7986C23.1765 29.8732 22.8803 29.6857 22.8064 29.271C22.7918 29.2215 22.7917 29.1821 22.7917 29.1326V28.4314C22.7917 28.392 22.7918 28.3522 22.8064 28.3031C22.8803 27.987 23.0434 27.8981 23.5916 27.8486L23.7397 27.8388H28.1396V26.8121H23.814C23.1919 26.8121 22.866 26.8515 22.5698 26.9404C21.6514 27.2269 21.2509 27.681 21.2509 28.4711V29.3696C21.2509 30.0611 22.0365 30.6536 23.3546 30.792C23.5031 30.8013 23.6509 30.8119 23.799 30.8119H25.3991C25.4584 30.8119 25.5176 30.8119 25.5623 30.8212C26.0513 30.8606 26.2582 30.9498 26.4067 31.1272C26.4448 31.1624 26.475 31.2052 26.4954 31.2528C26.5157 31.3004 26.5258 31.3518 26.5249 31.4036V32.3025C26.5249 32.4108 26.451 32.5492 26.3029 32.6677C26.1697 32.7862 25.9474 32.8653 25.6511 32.8852L25.488 32.895H21.2363V33.9217ZM37.6916 32.1345C37.6916 33.1909 38.4769 33.7833 40.0616 33.9022C40.2098 33.912 40.3579 33.9217 40.506 33.9217H44.5208V32.895H40.4768C39.573 32.895 39.2325 32.6677 39.2325 32.1244V26.8114H37.692L37.6916 32.1345ZM29.0636 32.1877V28.5258C29.0636 27.5958 29.7169 27.0315 31.0084 26.8534C31.146 26.8336 31.2848 26.8237 31.4239 26.8237H34.3485C34.497 26.8237 34.6305 26.8335 34.7786 26.8534C36.0701 27.0315 36.7238 27.5955 36.7238 28.5258V32.1877C36.7238 32.943 36.4463 33.3465 35.8069 33.6097L37.3249 34.9796H35.5358L34.308 33.8711L33.072 33.9495H31.4239C31.1177 33.9475 30.8132 33.9043 30.5186 33.8209C29.5388 33.5539 29.0636 33.039 29.0636 32.1877ZM30.7268 32.0988C30.7268 32.1483 30.7414 32.1982 30.7564 32.2575C30.8452 32.6831 31.2465 32.9205 31.8547 32.9205H33.2543L31.9688 31.7599H33.7579L34.8788 32.7723C35.0858 32.6617 35.2215 32.4937 35.2691 32.2773C35.2838 32.2278 35.2837 32.1784 35.2837 32.1289V28.6158C35.2837 28.5765 35.2838 28.5266 35.2691 28.4771C35.1799 28.0811 34.779 27.8538 34.1854 27.8538H31.8544C31.1719 27.8538 30.7264 28.1508 30.7264 28.6158V32.0988H30.7268ZM45.876 25.107C44.9291 25.0811 44.2058 25.1692 43.587 25.4299C43.4111 25.5041 43.131 25.506 43.1025 25.7261C43.1989 25.8277 43.2139 25.9789 43.2908 26.1034C43.4385 26.3422 43.6879 26.6625 43.9103 26.8301C44.1529 27.0135 44.4034 27.21 44.6644 27.369C45.1275 27.6517 45.645 27.813 46.0916 28.0957C46.3545 28.263 46.6155 28.473 46.8724 28.6616C46.9995 28.7542 47.0843 28.8994 47.2496 28.9575V28.9309C47.163 28.8206 47.1405 28.6691 47.061 28.5536L46.7107 28.2033C46.3684 27.7488 45.9341 27.3502 45.4718 27.0187C45.1035 26.7544 44.2792 26.397 44.1255 25.9683L44.0985 25.9417C44.3595 25.9121 44.6655 25.8176 44.9062 25.7531C45.3113 25.6444 45.6731 25.6725 46.0913 25.5645L46.6567 25.4025V25.2952C46.4456 25.0785 46.2945 24.7912 46.0642 24.5951C45.4616 24.0817 44.8031 23.5687 44.1255 23.1405C43.7497 22.9035 43.2851 22.7494 42.8865 22.5484C42.753 22.4805 42.5175 22.4456 42.4286 22.3327C42.219 22.0661 42.1054 21.7282 41.9437 21.4173C41.5986 20.7458 41.2753 20.0632 40.9744 19.3706C40.7704 18.9037 40.6369 18.4432 40.3822 18.0243C39.1594 16.014 37.8431 14.8005 35.8042 13.608C35.3704 13.3541 34.848 13.2543 34.2964 13.1235L33.4076 13.0695C33.2272 12.9941 33.039 12.7729 32.8691 12.6656C32.1934 12.2389 30.4609 11.3107 29.9606 12.5313C29.6449 13.3016 30.4331 14.0531 30.7147 14.4435C30.9124 14.7172 31.1659 15.024 31.3073 15.3318C31.4003 15.5343 31.416 15.7372 31.4959 15.9513C31.6912 16.4786 31.8619 17.0527 32.115 17.5398C32.2429 17.7866 32.3843 18.0465 32.5459 18.267C32.6449 18.402 32.8151 18.462 32.8418 18.6709C32.6756 18.9034 32.6659 19.2649 32.5725 19.5592C32.1518 20.8864 32.3104 22.536 32.9227 23.5181C33.1106 23.82 33.5531 24.4665 34.1614 24.2182C34.6935 24.0015 34.575 23.3298 34.7273 22.737C34.7618 22.6031 34.7404 22.5041 34.8079 22.4141V22.4411L35.2927 23.4105C35.6516 23.9884 36.288 24.5917 36.8276 24.9994C37.1074 25.2105 37.3279 25.5761 37.6894 25.6995V25.6721H37.6627C37.5922 25.563 37.4831 25.518 37.3931 25.4299C37.1824 25.2232 36.948 24.9667 36.774 24.7297C36.2831 24.0637 35.8496 23.3343 35.4544 22.5753C35.2657 22.2131 35.1019 21.8134 34.9429 21.4444C34.8814 21.3022 34.8821 21.087 34.7546 21.0138C34.5799 21.2838 34.3237 21.5025 34.1887 21.8216C33.9735 22.3316 33.9457 22.9537 33.8659 23.5987L33.8119 23.6253C33.4365 23.535 33.3049 23.1487 33.1654 22.8176C32.8129 21.9802 32.7472 20.6313 33.0577 19.6672C33.138 19.4175 33.5006 18.6318 33.3536 18.4012C33.2835 18.1713 33.0521 18.0386 32.9231 17.8623C32.7539 17.6265 32.6095 17.3738 32.4923 17.1082C32.2035 16.4554 32.0689 15.7222 31.7655 15.0619C31.62 14.7461 31.3747 14.427 31.173 14.1465C30.9499 13.8352 30.6997 13.6065 30.5265 13.2307C30.465 13.0972 30.3814 12.8831 30.4725 12.7458C30.5014 12.6532 30.543 12.6146 30.6345 12.5842C30.7905 12.4638 31.2255 12.6244 31.3883 12.6919C31.8203 12.8715 32.1806 13.0421 32.5466 13.2843C32.7221 13.401 32.8995 13.626 33.1121 13.6882H33.3544C33.7335 13.7752 34.1584 13.7148 34.5124 13.8225C35.1386 14.013 35.6996 14.3088 36.2089 14.6306C37.761 15.6108 39.0296 17.0058 39.8981 18.6701C40.0376 18.9382 40.0984 19.1936 40.221 19.4779C40.4692 20.0509 40.782 20.6407 41.0288 21.2013C41.2751 21.7605 41.5155 22.3248 41.8639 22.7902C42.0469 23.0347 42.7541 23.166 43.0755 23.3017C43.3009 23.397 43.6699 23.4963 43.8833 23.6246C44.2909 23.8706 44.6861 24.1635 45.0682 24.4327C45.2591 24.5685 45.8467 24.8636 45.876 25.107ZM33.8389 14.8473C33.6756 14.8447 33.5127 14.8628 33.354 14.9013V14.928H33.381C33.4751 15.1218 33.6413 15.2464 33.7579 15.4129L34.0275 15.9784L34.0541 15.9517C34.221 15.8343 34.2971 15.6465 34.2964 15.3592C34.2293 15.2887 34.2195 15.2006 34.1617 15.117C34.0852 15.0045 33.936 14.9415 33.8389 14.8473Z" fill="url(#paint0_linear_134_1203)"/>
<defs>
<linearGradient id="paint0_linear_134_1203" x1="23.9998" y1="11.9247" x2="23.9998" y2="36.0746" gradientUnits="userSpaceOnUse">
<stop stop-color="#F8F8FF"/>
<stop offset="0.0001" stop-color="#020627"/>
<stop offset="1" stop-color="#1D4FB0"/>
</linearGradient>
</defs>
</svg>
