<svg width="48" height="48" viewBox="0 0 48 48" fill="none" xmlns="http://www.w3.org/2000/svg">
<g clip-path="url(#clip0_134_1186)">
<path d="M17.9785 3.4125C13.1357 4.1625 12.2571 5.72812 12.2571 8.625V12.4406H23.7107V13.7156H7.96067C4.62853 13.7156 1.71424 15.4687 0.80353 18.7969C-0.24647 22.6125 -0.289327 24.9937 0.80353 28.9781C1.61782 31.9406 3.5571 34.0594 6.88924 34.0594H10.8214V29.4844C10.8214 26.175 14.0892 23.2594 17.9785 23.2594H29.4214C32.6035 23.2594 35.1428 20.9625 35.1428 18.1687V8.61562C35.1428 5.89687 32.5285 3.8625 29.4214 3.40312C25.5857 2.85 21.4178 2.87812 17.9785 3.4125ZM17.2607 6.075C18.4392 6.075 19.4142 6.9375 19.4142 7.9875C19.4142 9.0375 18.45 9.89062 17.2607 9.89062C16.0714 9.89062 15.1071 9.0375 15.1071 7.9875C15.1178 6.92812 16.0714 6.075 17.2607 6.075ZM37.1035 13.7062V18.1594C37.1035 21.6094 33.7607 24.5156 29.9464 24.5156H18.5035C15.375 24.5156 12.7821 26.8594 12.7821 29.6062V39.15C12.7821 41.8687 15.4821 43.4625 18.5035 44.2406C22.125 45.1687 25.6071 45.3375 29.9464 44.2406C32.8285 43.5094 35.6678 42.0375 35.6678 39.15V35.3344H24.2357V34.0594H41.4C44.7321 34.0594 45.9642 32.025 47.1214 28.9781C48.3214 25.8375 48.2678 22.8187 47.1214 18.7969C46.2964 15.9 44.7321 13.7156 41.4 13.7156H37.1035V13.7062ZM30.6642 37.875C31.8535 37.875 32.8178 38.7281 32.8178 39.7781C32.8178 40.8375 31.8535 41.6906 30.6642 41.6906C29.4857 41.6906 28.5107 40.8281 28.5107 39.7781C28.5214 38.7187 29.4857 37.875 30.6642 37.875Z" fill="url(#paint0_linear_134_1186)"/>
</g>
<defs>
<linearGradient id="paint0_linear_134_1186" x1="24.0006" y1="2.99988" x2="24.0006" y2="45.0013" gradientUnits="userSpaceOnUse">
<stop stop-color="#F8F8FF"/>
<stop offset="0.0001" stop-color="#020627"/>
<stop offset="1" stop-color="#1D4FB0"/>
</linearGradient>
<clipPath id="clip0_134_1186">
<rect width="48" height="48" fill="white"/>
</clipPath>
</defs>
</svg>
