<svg width="48" height="48" viewBox="0 0 48 48" fill="none" xmlns="http://www.w3.org/2000/svg">
<path d="M30.1257 29.0563C29.801 28.969 29.776 28.576 30.1507 28.4467C36.5856 25.7868 36.161 19.7499 36.161 19.7499C36.136 13.624 30.9981 7.95659 22.7166 8.00025C13.488 8.04391 7.95038 14.3864 8.00034 21.8859C8.07527 35.0075 19.5482 40.0218 23.1144 39.9999L23.0894 34.7909C23.0894 33.963 23.0894 33.3081 23.6639 33.3081C23.6639 33.3081 27.355 36.534 31.4458 36.534C37.8307 36.5121 40 31.8254 40 31.8254L30.1257 29.0563ZM22.7435 25.0463C19.4771 25.0681 16.8332 22.7574 16.8082 19.9027C16.7832 17.048 19.4271 14.7374 22.6936 14.7155C25.96 14.6937 28.6039 17.0044 28.6289 19.8591C28.6289 22.7138 26.01 25.0244 22.7435 25.0463Z" fill="url(#paint0_linear_134_1242)"/>
<defs>
<linearGradient id="paint0_linear_134_1242" x1="24" y1="8" x2="24" y2="40" gradientUnits="userSpaceOnUse">
<stop stop-color="#F8F8FF"/>
<stop offset="0.0001" stop-color="#020627"/>
<stop offset="1" stop-color="#1D4FB0"/>
</linearGradient>
</defs>
</svg>
