<svg width="48" height="48" viewBox="0 0 48 48" fill="none" xmlns="http://www.w3.org/2000/svg">
<g clip-path="url(#clip0_134_1190)">
<path d="M19.7195 23.9466C19.7195 21.2868 21.6419 19.1263 24.0085 19.1263C26.3752 19.1263 28.2976 21.2868 28.2976 23.9466C28.2976 26.6064 26.3752 28.7669 24.0085 28.7669C21.6419 28.7669 19.7195 26.6064 19.7195 23.9466ZM48 23.9466C48 27.2593 44.5226 30.6105 38.9178 32.6942C38.6273 32.7998 38.3282 32.9054 38.0206 33.011C38.1317 33.5007 38.2257 33.9808 38.3111 34.4514C38.8323 37.428 38.9178 40.1934 38.5504 42.4403C38.1574 44.8313 37.2688 46.5309 35.9872 47.3663C35.3464 47.7888 34.586 48 33.7401 48C31.4162 48 28.4685 46.4252 25.3927 43.4486C24.9569 43.0261 24.5297 42.5844 24.094 42.1139C23.7608 42.4788 23.4276 42.8244 23.0943 43.1509C21.0609 45.1482 18.9676 46.6077 17.0538 47.3663C16.0541 47.7695 15.1143 47.9712 14.277 47.9712C13.4055 47.9712 12.6365 47.7599 11.9872 47.3374C9.53507 45.7435 8.68067 41.1537 9.71449 35.0563C9.81702 34.4321 9.94518 33.7888 10.0904 33.1359C9.63759 32.9918 9.20185 32.8382 8.7832 32.675C6.22855 31.6955 4.05838 30.3896 2.51193 28.9013C0.871484 27.3265 0 25.6078 0 23.9466C0 20.7587 3.11 17.638 8.33037 15.6023C8.90281 15.3815 9.50089 15.1702 10.1161 14.9686C9.97935 14.3636 9.85974 13.7683 9.75721 13.1826C9.25311 10.2827 9.15913 7.62292 9.4838 5.48164C9.84265 3.14831 10.6885 1.48714 11.9445 0.670956C14.4906 -0.990217 18.8224 0.718967 23.231 5.12636C23.4959 5.39522 23.7608 5.67368 24.0342 5.96175C24.4357 5.52965 24.8373 5.11676 25.2303 4.72307C27.2125 2.78343 29.2204 1.36231 31.0317 0.613343C33.0053 -0.20284 34.7141 -0.20284 35.9616 0.603741C38.5162 2.25531 39.3621 7.32525 38.1659 13.8163C38.0975 14.21 38.0121 14.6037 37.9267 15.007C38.4564 15.1798 38.969 15.3623 39.4646 15.5543C41.9509 16.5145 44.0441 17.7628 45.5308 19.1455C47.1456 20.6627 48 22.3238 48 23.9466ZM25.4696 7.60371C26.8366 9.25529 28.2036 11.1757 29.5194 13.2882C31.7836 13.5282 33.9452 13.9123 35.9445 14.4309C36.0214 14.066 36.0983 13.7107 36.1581 13.3554C37.2773 7.23883 36.3119 3.49399 34.9363 2.60099C34.2357 2.14969 33.0993 2.2073 31.7323 2.77383C30.1517 3.42678 28.366 4.70386 26.5717 6.46106C26.2043 6.81634 25.837 7.20042 25.4696 7.60371ZM12.628 31.4747C13.995 31.8108 15.4731 32.0796 17.0452 32.2717C16.5326 31.3691 16.0285 30.4473 15.5415 29.5062C15.063 28.5844 14.6102 27.653 14.183 26.7216C13.5764 28.3348 13.0466 29.9383 12.628 31.4747ZM15.5415 18.5022C16.0199 17.5804 16.5069 16.6682 17.011 15.7848C15.4902 15.996 14.0292 16.2841 12.6536 16.6201C13.0723 18.1373 13.5849 19.7024 14.183 21.2964C14.6102 20.365 15.063 19.4336 15.5415 18.5022ZM17.3186 28.354C18.0619 29.7943 18.848 31.1962 19.6682 32.5309C21.0609 32.6269 22.5134 32.6846 24.0085 32.6846C25.5123 32.6846 26.9818 32.6269 28.4001 32.5117C29.1776 31.1962 29.9466 29.8039 30.707 28.3348C31.4589 26.8752 32.1509 25.4061 32.7747 23.9658C32.1509 22.5543 31.4674 21.114 30.707 19.6448C29.9637 18.1949 29.1862 16.8122 28.3916 15.4871C26.9648 15.3623 25.4952 15.3046 24.0085 15.3046C22.539 15.3046 21.0694 15.3719 19.634 15.4967C18.8309 16.8218 18.0449 18.2141 17.3101 19.6544C16.5753 21.0851 15.8918 22.5447 15.2681 24.0042C15.8918 25.4541 16.5753 26.9137 17.3186 28.354ZM31.0146 32.2333C32.5952 32.022 34.099 31.7339 35.4916 31.3787C35.0644 29.8711 34.5262 28.2772 33.8768 26.6256C33.4411 27.5762 32.9712 28.5364 32.4842 29.487C31.9972 30.428 31.5101 31.3499 31.0146 32.2333ZM35.3891 16.6489C34.005 16.2937 32.5354 16.0056 31.0061 15.7848C31.5016 16.6586 31.9886 17.5612 32.4671 18.483C32.9541 19.4336 33.4155 20.3746 33.8512 21.2964C34.4578 19.7024 34.979 18.1373 35.3891 16.6489ZM21.1805 13.0769C22.1118 13.0289 23.0516 13.0001 24 13.0001C24.9655 13.0001 25.9138 13.0289 26.8622 13.0769C25.9309 11.6846 24.9826 10.3979 24.0342 9.24568C23.0687 10.4075 22.1118 11.6942 21.1805 13.0769ZM11.7736 12.7409C11.8676 13.2882 11.9786 13.8355 12.1068 14.402C14.0975 13.8931 16.2592 13.5186 18.5233 13.2786C19.8391 11.1949 21.2147 9.28409 22.6073 7.59411C22.3681 7.33485 22.1289 7.0852 21.8896 6.85475C17.7202 2.70661 14.3539 1.7752 12.9783 2.66821C12.2777 3.11951 11.7565 4.26216 11.5087 5.87533C11.2268 7.73815 11.3122 10.1195 11.7736 12.7409ZM13.0039 24.0138C12.0555 21.6901 11.2609 19.3952 10.6629 17.1963C10.0904 17.3787 9.54361 17.5708 9.01388 17.782C4.21218 19.664 2.0591 22.2374 2.0591 23.9562C2.0591 25.7422 4.37451 28.5556 9.44963 30.5049C9.8341 30.6489 10.2271 30.7929 10.6372 30.9274C11.2439 28.6901 12.0384 26.3663 13.0039 24.0138ZM22.6586 40.4719C21.2488 38.7819 19.8647 36.8519 18.5404 34.749C16.1994 34.5378 14.0292 34.1825 12.0812 33.6928C11.9445 34.3073 11.8334 34.9027 11.7309 35.4788C10.7825 41.096 11.6967 44.476 13.0125 45.3306C14.388 46.2236 17.7116 45.3786 21.7529 41.4033C22.0434 41.1153 22.351 40.7984 22.6586 40.4719ZM26.9049 34.9123C25.9566 34.9603 24.9826 34.9891 24.0085 34.9891C23.0516 34.9891 22.1203 34.9699 21.2061 34.9315C22.1545 36.3334 23.12 37.6297 24.094 38.8107C25.0253 37.6489 25.9737 36.3526 26.9049 34.9123ZM36.3119 34.9027C36.235 34.4706 36.1495 34.0385 36.047 33.5872C34.0648 34.1057 31.8775 34.4802 29.5536 34.7106C28.2293 36.8711 26.8708 38.8011 25.5294 40.4527C25.9309 40.8944 26.341 41.3073 26.7341 41.6914C30.5874 45.417 33.6461 46.2236 34.9705 45.3594C36.346 44.476 37.3542 40.8176 36.3119 34.9027ZM45.958 23.9466C45.958 23.0344 45.3428 21.9589 44.2236 20.9123C42.9334 19.7024 41.0538 18.5982 38.8067 17.7244C38.3453 17.5516 37.8669 17.3787 37.3799 17.2155C36.7903 19.3568 36.0043 21.6325 35.0388 23.9562C36.047 26.3471 36.8672 28.642 37.4653 30.7833C37.7387 30.6873 38.0121 30.5913 38.277 30.4953C43.5486 28.5364 45.958 25.723 45.958 23.9466Z" fill="url(#paint0_linear_134_1190)"/>
</g>
<defs>
<linearGradient id="paint0_linear_134_1190" x1="24" y1="0" x2="24" y2="48" gradientUnits="userSpaceOnUse">
<stop stop-color="#F8F8FF"/>
<stop offset="0.0001" stop-color="#020627"/>
<stop offset="1" stop-color="#1D4FB0"/>
</linearGradient>
<clipPath id="clip0_134_1190">
<rect width="48" height="48" fill="white"/>
</clipPath>
</defs>
</svg>
