<svg width="48" height="48" viewBox="0 0 48 48" fill="none" xmlns="http://www.w3.org/2000/svg">
<path fill-rule="evenodd" clip-rule="evenodd" d="M20.82 14.2725C20.82 12.2175 22.53 11.4225 25.293 11.4225C29.8659 11.5213 34.3531 12.6824 38.4 14.814V2.40905C34.227 0.769116 29.7763 -0.048391 25.293 0.00154688C14.643 0.00154688 7.5 5.58005 7.5 14.895C7.5 29.469 27.513 27.102 27.513 33.384C27.513 35.841 25.413 36.603 22.458 36.603C18.1005 36.603 12.4725 34.8 8.058 32.4V44.967C12.603 46.9446 17.5029 47.9766 22.4595 48C33.405 48 40.95 42.5925 40.95 33.1155C40.95 17.3865 20.82 20.196 20.82 14.2755V14.2725Z" fill="url(#paint0_linear_134_1231)"/>
<defs>
<linearGradient id="paint0_linear_134_1231" x1="24.225" y1="-0.000610352" x2="24.225" y2="48" gradientUnits="userSpaceOnUse">
<stop stop-color="#F8F8FF"/>
<stop offset="0.0001" stop-color="#020627"/>
<stop offset="1" stop-color="#1D4FB0"/>
</linearGradient>
</defs>
</svg>
