<svg width="48" height="48" viewBox="0 0 48 48" fill="none" xmlns="http://www.w3.org/2000/svg">
<path d="M12 19.1875C13.5996 12.7712 17.6004 9.5625 24 9.5625C33.6 9.5625 34.8 16.7812 39.6 17.9844C42.8004 18.7869 45.6 17.5837 48 14.375C46.4004 20.7913 42.3996 24 36 24C26.4 24 25.2 16.7812 20.4 15.5781C17.1996 14.7756 14.4 15.9788 12 19.1875ZM0 33.625C1.5996 27.2087 5.6004 24 12 24C21.6 24 22.8 31.2188 27.6 32.4219C30.8004 33.2244 33.6 32.0212 36 28.8125C34.4004 35.2288 30.3996 38.4375 24 38.4375C14.4 38.4375 13.2 31.2188 8.4 30.0156C5.1996 29.2131 2.4 30.4163 0 33.625Z" fill="url(#paint0_linear_134_1193)"/>
<defs>
<linearGradient id="paint0_linear_134_1193" x1="24" y1="9.5625" x2="24" y2="38.4375" gradientUnits="userSpaceOnUse">
<stop stop-color="#F8F8FF"/>
<stop offset="0.0001" stop-color="#020627"/>
<stop offset="1" stop-color="#1D4FB0"/>
</linearGradient>
</defs>
</svg>
