<svg width="48" height="48" viewBox="0 0 48 48" fill="none" xmlns="http://www.w3.org/2000/svg">
<g clip-path="url(#clip0_134_1237)">
<path d="M1.37097 16.8911C1.37097 16.8911 0.235841 16.0694 1.59972 14.9737L4.77522 12.1259C4.77522 12.1259 5.68497 11.1663 6.64609 12.0029L35.9617 34.2509V44.9197C35.9617 44.9197 35.9471 46.5952 33.8028 46.4107L1.37097 16.8911Z" fill="url(#paint0_linear_134_1237)"/>
<path d="M8.92838 23.7671L1.371 30.6532C1.371 30.6532 0.594751 31.2318 1.371 32.2676L4.8795 35.4652C4.8795 35.4652 5.71275 36.3633 6.945 35.3422L14.9546 29.253L8.92838 23.7671Z" fill="url(#paint1_linear_134_1237)"/>
<path d="M22.194 23.8241L36.0513 13.2172L35.9617 2.60585C35.9617 2.60585 35.37 0.28985 33.3956 1.49623L14.9546 18.3191L22.194 23.8241Z" fill="url(#paint2_linear_134_1237)"/>
<path d="M33.8025 46.4239C34.6069 47.25 35.5826 46.9789 35.5826 46.9789L46.3815 41.6456C47.7641 40.7006 47.5706 39.5287 47.5706 39.5287V7.67435C47.5706 6.27373 46.1411 5.79035 46.1411 5.79035L36.7808 1.26748C34.7359 0.000351191 33.3956 1.49623 33.3956 1.49623C33.3956 1.49623 35.118 0.252351 35.9618 2.60623V44.7251C35.9618 45.015 35.9003 45.2989 35.7773 45.5554C35.5313 46.0549 34.995 46.5191 33.7133 46.3245L33.8025 46.4239Z" fill="url(#paint3_linear_134_1237)"/>
</g>
<defs>
<linearGradient id="paint0_linear_134_1237" x1="18.4448" y1="11.6605" x2="18.4448" y2="46.4249" gradientUnits="userSpaceOnUse">
<stop stop-color="#F8F8FF"/>
<stop offset="0.0001" stop-color="#020627"/>
<stop offset="1" stop-color="#1D4FB0"/>
</linearGradient>
<linearGradient id="paint1_linear_134_1237" x1="7.99031" y1="23.7671" x2="7.99031" y2="35.8303" gradientUnits="userSpaceOnUse">
<stop stop-color="#F8F8FF"/>
<stop offset="0.0001" stop-color="#020627"/>
<stop offset="1" stop-color="#1D4FB0"/>
</linearGradient>
<linearGradient id="paint2_linear_134_1237" x1="25.503" y1="1.14807" x2="25.503" y2="23.8241" gradientUnits="userSpaceOnUse">
<stop stop-color="#F8F8FF"/>
<stop offset="0.0001" stop-color="#020627"/>
<stop offset="1" stop-color="#1D4FB0"/>
</linearGradient>
<linearGradient id="paint3_linear_134_1237" x1="40.4878" y1="0.758057" x2="40.4878" y2="47.0214" gradientUnits="userSpaceOnUse">
<stop stop-color="#F8F8FF"/>
<stop offset="0.0001" stop-color="#020627"/>
<stop offset="1" stop-color="#1D4FB0"/>
</linearGradient>
<clipPath id="clip0_134_1237">
<rect width="48" height="48" fill="white"/>
</clipPath>
</defs>
</svg>
